<svg width="20" height="24" viewBox="0 0 20 24" fill="none" xmlns="http://www.w3.org/2000/svg">
<path d="M14.6192 0C14.6751 0 14.7309 0 14.7899 0C14.9269 1.69253 14.2809 2.95719 13.4958 3.87301C12.7254 4.78251 11.6704 5.6646 9.96421 5.53076C9.8504 3.86247 10.4975 2.69161 11.2816 1.77789C12.0087 0.92636 13.3419 0.168621 14.6192 0Z" fill="black" style="fill:black;fill-opacity:1;"/>
<path d="M19.7841 17.6166C19.7841 17.6335 19.7841 17.6482 19.7841 17.6641C19.3046 19.1163 18.6206 20.3609 17.7859 21.516C17.024 22.5646 16.0903 23.9757 14.423 23.9757C12.9824 23.9757 12.0254 23.0494 10.549 23.0241C8.98711 22.9988 8.12819 23.7987 6.70019 24C6.53684 24 6.37348 24 6.21329 24C5.16468 23.8482 4.31842 23.0178 3.7019 22.2695C1.88396 20.0585 0.479136 17.2025 0.217773 13.5476C0.217773 13.1893 0.217773 12.832 0.217773 12.4737C0.328431 9.85797 1.59941 7.73124 3.28878 6.70054C4.18036 6.15253 5.40602 5.68566 6.7708 5.89432C7.3557 5.98496 7.95325 6.1852 8.47703 6.38333C8.9734 6.57408 9.59414 6.91237 10.1822 6.89446C10.5806 6.88286 10.9768 6.67525 11.3784 6.52876C12.5545 6.10405 13.7074 5.61715 15.2271 5.84585C17.0535 6.12196 18.3498 6.93345 19.1507 8.18546C17.6057 9.16873 16.3843 10.6505 16.593 13.1808C16.7784 15.4794 18.1148 16.8241 19.7841 17.6166Z" fill="black" style="fill:black;fill-opacity:1;"/>
</svg>
