<svg width="24" height="24" viewBox="0 0 24 24" fill="none" xmlns="http://www.w3.org/2000/svg">
<g clip-path="url(#clip0_204_3162)">
<path d="M18.1391 5.13844V11.8331C18.1391 14.6667 15.8338 16.972 13.0002 16.972C10.1666 16.972 7.86133 14.6667 7.86133 11.8331V5.13844C7.86133 2.30484 10.1666 0 13.0002 0C15.8338 0 18.1391 2.30484 18.1391 5.13844Z" fill="#8B8992" style="fill:#8B8992;fill:color(display-p3 0.5451 0.5373 0.5725);fill-opacity:1;"/>
<path d="M21.7855 11.5828C21.7855 13.9209 20.8691 16.1245 19.2055 17.7881C17.7097 19.2843 15.777 20.1754 13.7033 20.34V24H12.297V20.34C10.2233 20.1754 8.29062 19.2843 6.79484 17.7881C5.13125 16.1245 4.21484 13.9209 4.21484 11.5828H5.62109C5.62109 15.652 8.93141 18.9623 13.0002 18.9623C17.0689 18.9623 20.3792 15.652 20.3792 11.5828H21.7855Z" fill="#FF712F" style="fill:#FF712F;fill:color(display-p3 1.0000 0.4431 0.1843);fill-opacity:1;"/>
<path d="M13 16.972V0C15.8336 0 18.1389 2.30484 18.1389 5.13844V11.8331C18.1389 14.6667 15.8336 16.972 13 16.972Z" fill="#7A7780" style="fill:#7A7780;fill:color(display-p3 0.4784 0.4667 0.5020);fill-opacity:1;"/>
<path d="M21.7853 11.5828C21.7853 13.9209 20.8689 16.1245 19.2053 17.7881C17.7095 19.2843 15.7769 20.1754 13.7031 20.34V24H13V18.9623C17.0687 18.9623 20.3791 15.652 20.3791 11.5828H21.7853Z" fill="#FF4B00" style="fill:#FF4B00;fill:color(display-p3 1.0000 0.2941 0.0000);fill-opacity:1;"/>
<path d="M23.5 0.5L1 23" stroke="#3F79CF" style="stroke:#3F79CF;stroke:color(display-p3 0.2471 0.4733 0.8125);stroke-opacity:1;" stroke-width="2"/>
</g>
<defs>
<clipPath id="clip0_204_3162">
<rect width="24" height="24" fill="white" style="fill:white;fill-opacity:1;"/>
</clipPath>
</defs>
</svg>
