<svg width="24" height="24" viewBox="0 0 24 24" fill="none" xmlns="http://www.w3.org/2000/svg">
<path d="M17.1391 5.13844V11.8331C17.1391 14.6667 14.8338 16.972 12.0002 16.972C9.16664 16.972 6.86133 14.6667 6.86133 11.8331V5.13844C6.86133 2.30484 9.16664 0 12.0002 0C14.8338 0 17.1391 2.30484 17.1391 5.13844Z" fill="#8B8992" style="fill:#8B8992;fill:color(display-p3 0.5451 0.5373 0.5725);fill-opacity:1;"/>
<path d="M20.7855 11.5828C20.7855 13.9209 19.8691 16.1245 18.2055 17.7881C16.7097 19.2843 14.777 20.1754 12.7033 20.34V24H11.297V20.34C9.22328 20.1754 7.29062 19.2843 5.79484 17.7881C4.13125 16.1245 3.21484 13.9209 3.21484 11.5828H4.62109C4.62109 15.652 7.93141 18.9623 12.0002 18.9623C16.0689 18.9623 19.3792 15.652 19.3792 11.5828H20.7855Z" fill="#FF712F" style="fill:#FF712F;fill:color(display-p3 1.0000 0.4431 0.1843);fill-opacity:1;"/>
<path d="M12 16.972V0C14.8336 0 17.1389 2.30484 17.1389 5.13844V11.8331C17.1389 14.6667 14.8336 16.972 12 16.972Z" fill="#7A7780" style="fill:#7A7780;fill:color(display-p3 0.4784 0.4667 0.5020);fill-opacity:1;"/>
<path d="M20.7853 11.5828C20.7853 13.9209 19.8689 16.1245 18.2053 17.7881C16.7095 19.2843 14.7769 20.1754 12.7031 20.34V24H12V18.9623C16.0687 18.9623 19.3791 15.652 19.3791 11.5828H20.7853Z" fill="#FF4B00" style="fill:#FF4B00;fill:color(display-p3 1.0000 0.2941 0.0000);fill-opacity:1;"/>
</svg>
