<svg width="40" height="40" viewBox="0 0 40 40" fill="none" xmlns="http://www.w3.org/2000/svg">
<rect x="0.5" y="0.5" width="39" height="39" rx="9.5" stroke="white" style="stroke:white;stroke-opacity:1;"/>
<path d="M26.3281 13.1094H23.6914V12.582C23.6914 11.7097 22.9817 11 22.1094 11H17.8906C17.0183 11 16.3086 11.7097 16.3086 12.582V13.1094H13.6719C12.7995 13.1094 12.0898 13.8191 12.0898 14.6914C12.0898 15.392 12.5478 15.9873 13.1799 16.1947L14.1205 27.5493C14.1882 28.3628 14.8807 29 15.697 29H24.303C25.1193 29 25.8118 28.3628 25.8796 27.5491L26.8201 16.1947C27.4522 15.9873 27.9102 15.392 27.9102 14.6914C27.9102 13.8191 27.2005 13.1094 26.3281 13.1094ZM17.3633 12.582C17.3633 12.2913 17.5998 12.0547 17.8906 12.0547H22.1094C22.4002 12.0547 22.6367 12.2913 22.6367 12.582V13.1094H17.3633V12.582ZM24.8285 27.4618C24.8059 27.7329 24.5751 27.9453 24.303 27.9453H15.697C15.4249 27.9453 15.1941 27.7329 15.1716 27.462L14.2447 16.2734H25.7553L24.8285 27.4618ZM26.3281 15.2188H13.6719C13.3811 15.2188 13.1445 14.9822 13.1445 14.6914C13.1445 14.4006 13.3811 14.1641 13.6719 14.1641H26.3281C26.6189 14.1641 26.8555 14.4006 26.8555 14.6914C26.8555 14.9822 26.6189 15.2188 26.3281 15.2188Z" fill="white" style="fill:white;fill-opacity:1;"/>
<path d="M17.8896 26.3307L17.3623 17.8229C17.3443 17.5322 17.0927 17.3111 16.8034 17.3292C16.5126 17.3472 16.2916 17.5974 16.3096 17.8881L16.837 26.396C16.8543 26.6756 17.0865 26.8907 17.3628 26.8907C17.6682 26.8907 17.9084 26.6335 17.8896 26.3307Z" fill="white" style="fill:white;fill-opacity:1;"/>
<path d="M20 17.3281C19.7088 17.3281 19.4727 17.5642 19.4727 17.8555V26.3633C19.4727 26.6545 19.7088 26.8906 20 26.8906C20.2912 26.8906 20.5273 26.6545 20.5273 26.3633V17.8555C20.5273 17.5642 20.2912 17.3281 20 17.3281Z" fill="white" style="fill:white;fill-opacity:1;"/>
<path d="M23.1967 17.3292C22.9067 17.3111 22.6557 17.5321 22.6377 17.8229L22.1104 26.3307C22.0924 26.6213 22.3135 26.8716 22.6041 26.8896C22.895 26.9076 23.1451 26.6865 23.1631 26.3959L23.6904 17.8881C23.7084 17.5974 23.4874 17.3472 23.1967 17.3292Z" fill="white" style="fill:white;fill-opacity:1;"/>
</svg>
