<svg width="25" height="25" viewBox="0 0 25 25" fill="none" xmlns="http://www.w3.org/2000/svg">
<path d="M21.2891 2.92969H17.627V2.19727C17.627 0.985693 16.6413 0 15.4297 0H9.57031C8.35874 0 7.37305 0.985693 7.37305 2.19727V2.92969H3.71094C2.49937 2.92969 1.51367 3.91538 1.51367 5.12695C1.51367 6.1 2.14966 6.92681 3.02759 7.21489L4.33398 22.9852C4.42808 24.115 5.38989 25 6.52363 25H18.4764C19.6102 25 20.572 24.115 20.6661 22.9848L21.9724 7.21484C22.8503 6.92681 23.4863 6.1 23.4863 5.12695C23.4863 3.91538 22.5006 2.92969 21.2891 2.92969ZM8.83789 2.19727C8.83789 1.79341 9.16646 1.46484 9.57031 1.46484H15.4297C15.8335 1.46484 16.1621 1.79341 16.1621 2.19727V2.92969H8.83789V2.19727ZM19.2062 22.8636C19.1749 23.2401 18.8543 23.5352 18.4764 23.5352H6.52363C6.14575 23.5352 5.82515 23.2401 5.79385 22.8639L4.50654 7.32422H20.4935L19.2062 22.8636ZM21.2891 5.85938H3.71094C3.30708 5.85938 2.97852 5.53081 2.97852 5.12695C2.97852 4.7231 3.30708 4.39453 3.71094 4.39453H21.2891C21.6929 4.39453 22.0215 4.7231 22.0215 5.12695C22.0215 5.53081 21.6929 5.85938 21.2891 5.85938Z" fill="#3F79CF" style="fill:#3F79CF;fill:color(display-p3 0.2471 0.4733 0.8125);fill-opacity:1;"/>
<path d="M9.56889 21.2925L8.83647 9.47612C8.81142 9.07236 8.46196 8.76528 8.06015 8.79043C7.65639 8.81548 7.34941 9.16304 7.37441 9.56675L8.10683 21.3832C8.1309 21.7715 8.45337 22.0703 8.83715 22.0703C9.26132 22.0703 9.59492 21.7131 9.56889 21.2925Z" fill="#3F79CF" style="fill:#3F79CF;fill:color(display-p3 0.2471 0.4733 0.8125);fill-opacity:1;"/>
<path d="M12.5 8.78906C12.0955 8.78906 11.7676 9.11699 11.7676 9.52148V21.3379C11.7676 21.7424 12.0955 22.0703 12.5 22.0703C12.9045 22.0703 13.2324 21.7424 13.2324 21.3379V9.52148C13.2324 9.11699 12.9045 8.78906 12.5 8.78906Z" fill="#3F79CF" style="fill:#3F79CF;fill:color(display-p3 0.2471 0.4733 0.8125);fill-opacity:1;"/>
<path d="M16.9398 8.79048C16.537 8.76543 16.1885 9.07241 16.1635 9.47617L15.431 21.2926C15.4061 21.6963 15.7131 22.0438 16.1168 22.0689C16.5207 22.0939 16.8681 21.7868 16.8931 21.3832L17.6255 9.5668C17.6505 9.16304 17.3435 8.81548 16.9398 8.79048Z" fill="#3F79CF" style="fill:#3F79CF;fill:color(display-p3 0.2471 0.4733 0.8125);fill-opacity:1;"/>
</svg>
