<svg width="22" height="22" viewBox="0 0 22 22" fill="none" xmlns="http://www.w3.org/2000/svg">
<g clip-path="url(#clip0_219_9469)">
<path d="M11.25 20.5333C10.3294 19.3987 9.77773 17.9527 9.77773 16.3778C9.77773 14.5811 10.4957 12.9521 11.6603 11.762C7.98822 11.3368 4.21776 12.0164 0.860187 13.8007C0.330907 14.082 0 14.6325 0 15.2319V18.8221C0 19.7671 0.766085 20.5332 1.71111 20.5332H11.25V20.5333Z" fill="#90A7B2" style="fill:#90A7B2;fill:color(display-p3 0.5647 0.6549 0.6980);fill-opacity:1;"/>
<path fill-rule="evenodd" clip-rule="evenodd" d="M9.53172 0C6.69669 0 4.39844 2.29826 4.39844 5.13333C4.39844 7.96841 6.69669 10.2667 9.53172 10.2667C12.3668 10.2667 14.6651 7.96841 14.6651 5.13333C14.6651 2.29826 12.3668 0 9.53172 0Z" fill="#90A7B2" style="fill:#90A7B2;fill:color(display-p3 0.5647 0.6549 0.6980);fill-opacity:1;"/>
<path fill-rule="evenodd" clip-rule="evenodd" d="M12.2245 16.3777C12.2245 14.0827 14.085 12.2222 16.38 12.2222C17.2628 12.2222 18.0811 12.4973 18.7541 12.9666L12.9689 18.7517C12.4997 18.0788 12.2245 17.2603 12.2245 16.3777ZM14.0061 19.7888C14.679 20.2581 15.4974 20.5333 16.38 20.5333C18.675 20.5333 20.5355 18.6728 20.5355 16.3777C20.5355 15.4951 20.2604 14.6767 19.7912 14.0037L14.0061 19.7888ZM16.38 10.7555C13.275 10.7555 10.7578 13.2727 10.7578 16.3777C10.7578 19.4827 13.275 21.9999 16.38 21.9999C19.4851 21.9999 22.0023 19.4827 22.0023 16.3777C22.0023 13.2727 19.4851 10.7555 16.38 10.7555Z" fill="#F44336" style="fill:#F44336;fill:color(display-p3 0.9569 0.2627 0.2118);fill-opacity:1;"/>
<path fill-rule="evenodd" clip-rule="evenodd" d="M16.38 12.2221C14.085 12.2221 12.2245 14.0826 12.2245 16.3777C12.2245 17.2603 12.4997 18.0787 12.9689 18.7517L16.38 15.3405V17.4148L14.0061 19.7887C14.679 20.258 15.4974 20.5331 16.38 20.5331V21.9998C13.275 21.9998 10.7578 19.4826 10.7578 16.3776C10.7578 13.2726 13.275 10.7554 16.38 10.7554V12.2221Z" fill="#CC382D" style="fill:#CC382D;fill:color(display-p3 0.8000 0.2196 0.1765);fill-opacity:1;"/>
<path fill-rule="evenodd" clip-rule="evenodd" d="M9.53329 11.6393V20.5332H1.71111C0.766085 20.5332 0 19.7672 0 18.8221V15.2319C0 14.6325 0.330859 14.082 0.860234 13.8007C3.57171 12.3597 6.5525 11.6393 9.53329 11.6393ZM9.53329 0V10.2667C6.69825 10.2667 4.4 7.96841 4.4 5.13333C4.4 2.29826 6.69825 0 9.53329 0Z" fill="#7E97A3" style="fill:#7E97A3;fill:color(display-p3 0.4941 0.5922 0.6392);fill-opacity:1;"/>
</g>
<defs>
<clipPath id="clip0_219_9469">
<rect width="22" height="22" fill="white" style="fill:white;fill-opacity:1;"/>
</clipPath>
</defs>
</svg>
