<svg width="20" height="9" viewBox="0 0 20 9" fill="none" xmlns="http://www.w3.org/2000/svg">
<path d="M11.6884 1.69607L4.68837 8.57107C4.57147 8.68606 4.41407 8.7505 4.25009 8.7505C4.08612 8.7505 3.92871 8.68606 3.81181 8.57107L0.811812 5.62498C0.753282 5.56742 0.706661 5.4989 0.674611 5.42333C0.642562 5.34775 0.625711 5.26661 0.625022 5.18452C0.624333 5.10244 0.639818 5.02102 0.670594 4.94492C0.70137 4.86882 0.746834 4.79952 0.80439 4.74099C0.861946 4.68246 0.930467 4.63584 1.00604 4.60379C1.08161 4.57174 1.16276 4.55489 1.24485 4.5542C1.32693 4.55351 1.40835 4.569 1.48445 4.59977C1.56055 4.63055 1.62984 4.67601 1.68837 4.73357L4.25009 7.2492L10.8126 0.803883C10.9309 0.687644 11.0905 0.623164 11.2564 0.624629C11.3385 0.625355 11.4197 0.642248 11.4953 0.674345C11.5709 0.706442 11.6394 0.753114 11.697 0.811696C11.7545 0.870278 11.8 0.939622 11.8307 1.01577C11.8615 1.09192 11.8769 1.17338 11.8762 1.2555C11.8755 1.33762 11.8586 1.4188 11.8265 1.49439C11.7944 1.56998 11.7477 1.63851 11.6892 1.69607H11.6884ZM19.1962 0.811696C19.1387 0.75307 19.0701 0.706359 18.9945 0.674234C18.9189 0.642109 18.8378 0.625201 18.7556 0.624475C18.6735 0.623749 18.592 0.639221 18.5159 0.670005C18.4397 0.70079 18.3704 0.746283 18.3118 0.803883L11.7493 7.2492L10.2782 5.80388C10.1599 5.68775 10.0003 5.62337 9.83453 5.62491C9.66875 5.62644 9.51037 5.69378 9.39423 5.81209C9.2781 5.9304 9.21372 6.09 9.21526 6.25578C9.21679 6.42156 9.28413 6.57994 9.40244 6.69607L11.311 8.57107C11.4279 8.68606 11.5853 8.7505 11.7493 8.7505C11.9133 8.7505 12.0707 8.68606 12.1876 8.57107L19.1876 1.69607C19.2463 1.63859 19.293 1.57011 19.3252 1.49454C19.3574 1.41897 19.3744 1.3378 19.3752 1.25566C19.376 1.17353 19.3606 1.09204 19.3299 1.01586C19.2992 0.939682 19.2537 0.870304 19.1962 0.811696Z" fill="#329993" style="fill:#329993;fill:color(display-p3 0.1961 0.6000 0.5765);fill-opacity:1;"/>
</svg>
