<svg width="13" height="13" viewBox="0 0 13 13" fill="none" xmlns="http://www.w3.org/2000/svg">
<g clip-path="url(#clip0_225_12061)">
<path d="M6.88086 6.15746V3.89949C7.32415 4.05671 7.64258 4.48005 7.64258 4.97656H8.4043C8.4043 4.05694 7.74902 3.28753 6.88086 3.11058V2.4375H6.11914V3.11058C5.25098 3.2875 4.5957 4.05691 4.5957 4.97656C4.5957 5.89621 5.25098 6.6656 6.11914 6.84254V9.10051C5.67585 8.94329 5.35742 8.51995 5.35742 8.02344H4.5957C4.5957 8.94306 5.25098 9.71247 6.11914 9.88942V10.5625H6.88086V9.88942C7.74902 9.7125 8.4043 8.94309 8.4043 8.02344C8.4043 7.10379 7.74902 6.3344 6.88086 6.15746ZM6.11914 6.05363C5.67585 5.89641 5.35742 5.47308 5.35742 4.97656C5.35742 4.48005 5.67585 4.05671 6.11914 3.89949V6.05363ZM6.88086 9.10051V6.94637C7.32415 7.10359 7.64258 7.52692 7.64258 8.02344C7.64258 8.51995 7.32415 8.94329 6.88086 9.10051Z" fill="white" style="fill:white;fill-opacity:1;"/>
<path d="M6.5 0C2.91015 0 0 2.91015 0 6.5C0 10.0899 2.91015 13 6.5 13C10.0899 13 13 10.0899 13 6.5C13 2.91015 10.0899 0 6.5 0ZM6.5 12.2383C3.33084 12.2383 0.761719 9.66916 0.761719 6.5C0.761719 3.33084 3.33084 0.761719 6.5 0.761719C9.66916 0.761719 12.2383 3.33084 12.2383 6.5C12.2383 9.66916 9.66916 12.2383 6.5 12.2383Z" fill="white" style="fill:white;fill-opacity:1;"/>
</g>
<defs>
<clipPath id="clip0_225_12061">
<rect width="13" height="13" fill="white" style="fill:white;fill-opacity:1;"/>
</clipPath>
</defs>
</svg>
