<svg width="12" height="12" viewBox="0 0 12 12" fill="none" xmlns="http://www.w3.org/2000/svg">
<path d="M11.431 3.01247L8.98758 0.568486C8.90633 0.487214 8.80986 0.422744 8.70369 0.378758C8.59751 0.334773 8.48372 0.312134 8.36879 0.312134C8.25387 0.312134 8.14007 0.334773 8.0339 0.378758C7.92773 0.422744 7.83126 0.487214 7.75 0.568486L1.00649 7.31255C0.924884 7.39351 0.860185 7.48988 0.816154 7.59606C0.772123 7.70224 0.749637 7.81611 0.750004 7.93106V10.375C0.750004 10.6071 0.842192 10.8297 1.00629 10.9938C1.17038 11.1579 1.39294 11.25 1.625 11.25H4.06899C4.18394 11.2504 4.29781 11.2279 4.404 11.1839C4.51018 11.1399 4.60655 11.0752 4.6875 10.9936L11.431 4.25005C11.5123 4.16879 11.5768 4.07233 11.6207 3.96615C11.6647 3.85998 11.6874 3.74618 11.6874 3.63126C11.6874 3.51634 11.6647 3.40254 11.6207 3.29637C11.5768 3.19019 11.5123 3.09372 11.431 3.01247ZM4.06899 10.375H1.625V7.93106L6.4375 3.11856L8.88149 5.56255L4.06899 10.375ZM9.5 4.94349L7.05602 2.50005L8.36852 1.18755L10.8125 3.63099L9.5 4.94349Z" fill="white" style="fill:white;fill-opacity:1;"/>
</svg>
