<svg width="20" height="22" viewBox="0 0 20 22" fill="none" xmlns="http://www.w3.org/2000/svg">
<path d="M16 2.25H4C1.92893 2.25 0.25 3.92893 0.25 6V18C0.25 20.0711 1.92893 21.75 4 21.75H16C18.0711 21.75 19.75 20.0711 19.75 18V6C19.75 3.92893 18.0711 2.25 16 2.25Z" fill="#29B6F6" style="fill:#29B6F6;fill:color(display-p3 0.1608 0.7137 0.9647);fill-opacity:1;"/>
<path d="M14 4.75C13.8011 4.75 13.6103 4.67098 13.4697 4.53033C13.329 4.38968 13.25 4.19891 13.25 4V1C13.25 0.801088 13.329 0.610322 13.4697 0.46967C13.6103 0.329018 13.8011 0.25 14 0.25C14.1989 0.25 14.3897 0.329018 14.5303 0.46967C14.671 0.610322 14.75 0.801088 14.75 1V4C14.75 4.19891 14.671 4.38968 14.5303 4.53033C14.3897 4.67098 14.1989 4.75 14 4.75Z" fill="#1565C0" style="fill:#1565C0;fill:color(display-p3 0.0824 0.3961 0.7529);fill-opacity:1;"/>
<path d="M10 4.75C9.80109 4.75 9.61032 4.67098 9.46967 4.53033C9.32902 4.38968 9.25 4.19891 9.25 4V1C9.25 0.801088 9.32902 0.610322 9.46967 0.46967C9.61032 0.329018 9.80109 0.25 10 0.25C10.1989 0.25 10.3897 0.329018 10.5303 0.46967C10.671 0.610322 10.75 0.801088 10.75 1V4C10.75 4.19891 10.671 4.38968 10.5303 4.53033C10.3897 4.67098 10.1989 4.75 10 4.75Z" fill="#1565C0" style="fill:#1565C0;fill:color(display-p3 0.0824 0.3961 0.7529);fill-opacity:1;"/>
<path d="M6 4.75C5.80109 4.75 5.61032 4.67098 5.46967 4.53033C5.32902 4.38968 5.25 4.19891 5.25 4V1C5.25 0.801088 5.32902 0.610322 5.46967 0.46967C5.61032 0.329018 5.80109 0.25 6 0.25C6.19891 0.25 6.38968 0.329018 6.53033 0.46967C6.67098 0.610322 6.75 0.801088 6.75 1V4C6.75 4.19891 6.67098 4.38968 6.53033 4.53033C6.38968 4.67098 6.19891 4.75 6 4.75Z" fill="#1565C0" style="fill:#1565C0;fill:color(display-p3 0.0824 0.3961 0.7529);fill-opacity:1;"/>
<path d="M14 9.75H6C5.80109 9.75 5.61032 9.67098 5.46967 9.53033C5.32902 9.38968 5.25 9.19891 5.25 9C5.25 8.80109 5.32902 8.61032 5.46967 8.46967C5.61032 8.32902 5.80109 8.25 6 8.25H14C14.1989 8.25 14.3897 8.32902 14.5303 8.46967C14.671 8.61032 14.75 8.80109 14.75 9C14.75 9.19891 14.671 9.38968 14.5303 9.53033C14.3897 9.67098 14.1989 9.75 14 9.75Z" fill="white" style="fill:white;fill-opacity:1;"/>
<path d="M14 13.75H6C5.80109 13.75 5.61032 13.671 5.46967 13.5303C5.32902 13.3897 5.25 13.1989 5.25 13C5.25 12.8011 5.32902 12.6103 5.46967 12.4697C5.61032 12.329 5.80109 12.25 6 12.25H14C14.1989 12.25 14.3897 12.329 14.5303 12.4697C14.671 12.6103 14.75 12.8011 14.75 13C14.75 13.1989 14.671 13.3897 14.5303 13.5303C14.3897 13.671 14.1989 13.75 14 13.75Z" fill="white" style="fill:white;fill-opacity:1;"/>
<path d="M14 17.75H6C5.80109 17.75 5.61032 17.671 5.46967 17.5303C5.32902 17.3897 5.25 17.1989 5.25 17C5.25 16.8011 5.32902 16.6103 5.46967 16.4697C5.61032 16.329 5.80109 16.25 6 16.25H14C14.1989 16.25 14.3897 16.329 14.5303 16.4697C14.671 16.6103 14.75 16.8011 14.75 17C14.75 17.1989 14.671 17.3897 14.5303 17.5303C14.3897 17.671 14.1989 17.75 14 17.75Z" fill="white" style="fill:white;fill-opacity:1;"/>
</svg>
