<svg width="24" height="24" viewBox="0 0 24 24" fill="none" xmlns="http://www.w3.org/2000/svg">
<path d="M22.5512 4.03223H21.1025L22.5512 7.65398H23.9999V5.48095C23.9999 4.68416 23.348 4.03223 22.5512 4.03223Z" fill="#FF4D6B" style="fill:#FF4D6B;fill:color(display-p3 1.0000 0.3020 0.4196);fill-opacity:1;"/>
<path d="M21.1025 4.03223H9.10254V7.65398H22.5512V5.48095C22.5513 4.68416 21.8993 4.03223 21.1025 4.03223Z" fill="#FF738D" style="fill:#FF738D;fill:color(display-p3 1.0000 0.4510 0.5529);fill-opacity:1;"/>
<path d="M22.5512 18.519L21.1025 22.1408H22.5512C23.348 22.1408 23.9999 21.4889 23.9999 20.6921V19.9678L22.5512 18.519Z" fill="#FF738D" style="fill:#FF738D;fill:color(display-p3 1.0000 0.4510 0.5529);fill-opacity:1;"/>
<path d="M22.5513 20.6921V18.519L0 19.9677V20.6921C0 21.4889 0.651891 22.1407 1.44867 22.1407H21.1026C21.8994 22.1407 22.5513 21.4889 22.5513 20.6921Z" fill="#FF91A5" style="fill:#FF91A5;fill:color(display-p3 1.0000 0.5686 0.6471);fill-opacity:1;"/>
<path d="M22.5512 6.20508H21.1025L22.5512 19.9677H23.9999V7.6538C23.9999 6.85702 23.348 6.20508 22.5512 6.20508Z" fill="#FF91A5" style="fill:#FF91A5;fill:color(display-p3 1.0000 0.5686 0.6471);fill-opacity:1;"/>
<path d="M22.5513 7.65411C22.5513 6.85733 21.8994 6.20544 21.1027 6.20544H13.4487L11.3549 3.06472C10.9129 2.40181 9.89934 1.85938 9.10256 1.85938H1.44867C0.651891 1.85933 0 2.51122 0 3.308V19.968H22.5513V7.65411Z" fill="#FFB3C1" style="fill:#FFB3C1;fill:color(display-p3 1.0000 0.7020 0.7569);fill-opacity:1;"/>
</svg>
