<svg width="24" height="24" viewBox="0 0 24 24" fill="none" xmlns="http://www.w3.org/2000/svg">
<g clip-path="url(#clip0_168_7454)">
<path d="M23.0935 9.91355L13.3042 9.91309C12.8719 9.91309 12.5215 10.2634 12.5215 10.6957V13.823C12.5215 14.2552 12.8719 14.6056 13.3041 14.6056H18.8169C18.2132 16.1722 17.0865 17.4842 15.6491 18.3178L17.9997 22.387C21.7704 20.2062 23.9997 16.3799 23.9997 12.0965C23.9997 11.4866 23.9548 11.0506 23.8649 10.5597C23.7965 10.1867 23.4727 9.91355 23.0935 9.91355Z" fill="#167EE6" style="fill:#167EE6;fill:color(display-p3 0.0863 0.4941 0.9020);fill-opacity:1;"/>
<path d="M11.9993 19.3044C9.30145 19.3044 6.94626 17.8303 5.68134 15.6491L1.6123 17.9945C3.68301 21.5833 7.5621 24 11.9993 24C14.176 24 16.2299 23.414 17.9993 22.3926V22.387L15.6486 18.3178C14.5734 18.9414 13.3292 19.3044 11.9993 19.3044Z" fill="#12B347" style="fill:#12B347;fill:color(display-p3 0.0706 0.7020 0.2784);fill-opacity:1;"/>
<path d="M18 22.3925V22.387L15.6494 18.3177C14.5741 18.9413 13.33 19.3043 12 19.3043V24C14.1767 24 16.2308 23.4139 18 22.3925Z" fill="#0F993E" style="fill:#0F993E;fill:color(display-p3 0.0588 0.6000 0.2431);fill-opacity:1;"/>
<path d="M4.69566 12C4.69566 10.6702 5.05856 9.42607 5.68205 8.3509L1.61302 6.00555C0.586031 7.76932 0 9.81766 0 12C0 14.1823 0.586031 16.2306 1.61302 17.9944L5.68205 15.6491C5.05856 14.5739 4.69566 13.3298 4.69566 12Z" fill="#FFD500" style="fill:#FFD500;fill:color(display-p3 1.0000 0.8353 0.0000);fill-opacity:1;"/>
<path d="M11.9993 4.69566C13.7586 4.69566 15.3745 5.32078 16.6367 6.36061C16.9481 6.61711 17.4007 6.59859 17.6859 6.31336L19.9017 4.09758C20.2253 3.77395 20.2023 3.24422 19.8566 2.94431C17.7418 1.10967 14.9902 0 11.9993 0C7.5621 0 3.68301 2.41673 1.6123 6.00558L5.68134 8.35092C6.94626 6.16969 9.30145 4.69566 11.9993 4.69566Z" fill="#FF4B26" style="fill:#FF4B26;fill:color(display-p3 1.0000 0.2941 0.1490);fill-opacity:1;"/>
<path d="M16.6374 6.36061C16.9488 6.61711 17.4015 6.59859 17.6866 6.31336L19.9024 4.09758C20.226 3.77395 20.2029 3.24422 19.8573 2.94431C17.7425 1.10963 14.991 0 12 0V4.69566C13.7592 4.69566 15.3752 5.32078 16.6374 6.36061Z" fill="#D93F21" style="fill:#D93F21;fill:color(display-p3 0.8510 0.2471 0.1294);fill-opacity:1;"/>
</g>
<defs>
<clipPath id="clip0_168_7454">
<rect width="24" height="24" fill="white" style="fill:white;fill-opacity:1;"/>
</clipPath>
</defs>
</svg>
