<svg width="18" height="18" viewBox="0 0 18 18" fill="none" xmlns="http://www.w3.org/2000/svg">
<g clip-path="url(#clip0_219_9607)">
<path d="M17.9352 14.1273L16.8898 11.0848C17.3937 10.0546 17.66 8.90894 17.6618 7.7562C17.6649 5.75183 16.8894 3.85666 15.4782 2.41982C14.0666 0.982703 12.1857 0.173721 10.1818 0.141975C8.10389 0.109139 6.15074 0.899523 4.68237 2.36786C3.26648 3.78371 2.48116 5.65027 2.45631 7.6449C1.06081 8.69558 0.237134 10.3337 0.239841 12.0834C0.241142 12.9022 0.425431 13.7161 0.774639 14.4521L0.0545319 16.5477C-0.0692535 16.9079 0.0211686 17.2991 0.290536 17.5684C0.480099 17.758 0.730026 17.859 0.987053 17.859C1.09519 17.859 1.2046 17.8411 1.3113 17.8044L3.40693 17.0843C4.14293 17.4335 4.95683 17.6178 5.77563 17.6191C5.77858 17.6191 5.78139 17.6191 5.78434 17.6191C7.56009 17.6191 9.21068 16.7741 10.2575 15.3444C11.3469 15.3158 12.4248 15.0521 13.3992 14.5754L16.4418 15.6208C16.5685 15.6644 16.6986 15.6856 16.8271 15.6856C17.1325 15.6856 17.4295 15.5657 17.6548 15.3403C17.9749 15.0202 18.0823 14.5554 17.9352 14.1273ZM5.78427 16.5477C5.78199 16.5477 5.77956 16.5477 5.77728 16.5477C5.05257 16.5466 4.33288 16.368 3.69616 16.0311C3.56524 15.9619 3.41154 15.9499 3.27155 15.998L1.12269 16.7364L1.86107 14.5875C1.90917 14.4475 1.89722 14.2938 1.82796 14.1629C1.49109 13.5262 1.31243 12.8065 1.3113 12.0818C1.30951 10.916 1.76299 9.81109 2.55601 8.98372C2.81504 10.5628 3.56763 12.0179 4.73419 13.1637C5.89213 14.3011 7.34768 15.0252 8.91818 15.262C8.08891 16.0793 6.97108 16.5477 5.78427 16.5477ZM16.8971 14.5827C16.8666 14.6132 16.8305 14.6215 16.7899 14.6075L13.5327 13.4883C13.4761 13.4688 13.4173 13.4592 13.3586 13.4592C13.2722 13.4592 13.1861 13.4801 13.1081 13.5214C12.1781 14.0134 11.1272 14.2743 10.069 14.2759C10.0655 14.2759 10.0623 14.2759 10.0588 14.2759C6.51285 14.2759 3.58388 11.3954 3.5277 7.85028C3.49939 6.06486 4.17854 4.38689 5.43999 3.12545C6.70143 1.864 8.37969 1.1851 10.1649 1.21322C13.7134 1.26951 16.5959 4.2039 16.5904 7.75451C16.5887 8.81279 16.3278 9.86372 15.8359 10.7936C15.7666 10.9245 15.7547 11.0782 15.8028 11.2183L16.922 14.4754C16.9359 14.5162 16.9276 14.5523 16.8971 14.5827Z" fill="#3F79CF" style="fill:#3F79CF;fill:color(display-p3 0.2471 0.4733 0.8125);fill-opacity:1;"/>
<g clip-path="url(#clip1_219_9607)">
<path d="M10.5633 10.347C10.3822 10.3565 10.1944 10.3594 9.99998 10.3594C9.20693 10.3594 8.40255 10.285 7.61083 10.1377C7.51362 10.1188 7.44303 10.0348 7.44303 9.93738V9.61959C7.44303 8.55291 8.3333 7.6849 9.42733 7.6849C9.81021 7.68522 10.1901 7.68522 10.5726 7.6849C11.0521 7.6849 11.5138 7.85467 11.8724 8.1637C11.9969 8.27082 12.186 8.25881 12.2956 8.13806C12.4051 8.01698 12.3931 7.8326 12.2693 7.72548C12.0116 7.50377 11.7126 7.33919 11.3923 7.23369C11.9663 6.81754 12.3402 6.15338 12.3402 5.40385C12.3402 4.14565 11.2904 3.12183 9.99998 3.12183C8.70952 3.12183 7.65978 4.14565 7.65978 5.40385C7.65978 6.15273 8.03333 6.81624 8.60631 7.23272C7.5832 7.56836 6.84375 8.51039 6.84375 9.61926V9.93706C6.84375 10.313 7.11776 10.6382 7.49664 10.7109C8.32698 10.8654 9.16897 10.9437 9.99998 10.9437C10.2054 10.9437 10.4038 10.9401 10.5956 10.93C10.7611 10.9216 10.8876 10.784 10.8789 10.6226C10.8696 10.462 10.7234 10.3376 10.5633 10.347ZM8.25906 5.40385C8.25906 4.46767 9.04013 3.70645 9.99998 3.70645C10.9598 3.70645 11.7409 4.46799 11.7409 5.40385C11.7409 6.33646 10.9652 7.09508 10.0096 7.10027H9.99032C9.0348 7.09508 8.25906 6.33646 8.25906 5.40385Z" fill="#3F79CF" style="fill:#3F79CF;fill:color(display-p3 0.2471 0.4733 0.8125);fill-opacity:1;"/>
<path d="M12.8716 6.9416C12.7438 6.98932 12.6655 7.11592 12.6818 7.24869C12.6978 7.38113 12.8043 7.4863 12.9402 7.50383C13.3081 7.5509 13.6753 7.75962 13.948 8.0771C14.0072 8.14591 14.0921 8.18162 14.1777 8.18162C14.2456 8.18162 14.3139 8.15922 14.3698 8.11345C14.4967 8.0099 14.5136 7.82552 14.4071 7.70152C14.2007 7.46131 13.9503 7.26621 13.6793 7.1302C14.0738 6.78157 14.3139 6.27874 14.3139 5.74346C14.3139 4.97218 13.8381 4.29082 13.102 4.00776C12.9482 3.94803 12.7741 4.02204 12.7135 4.17234C12.6529 4.32231 12.7284 4.49208 12.8823 4.55116C13.388 4.74593 13.7146 5.21369 13.7146 5.74346C13.7149 6.27063 13.376 6.75235 12.8716 6.9416Z" fill="#3F79CF" style="fill:#3F79CF;fill:color(display-p3 0.2471 0.4733 0.8125);fill-opacity:1;"/>
<path d="M6.03121 9.48453L5.91135 9.46408C5.8461 9.45305 5.78217 9.44266 5.71992 9.43032C5.6733 9.42124 5.63835 9.37871 5.63835 9.33067V9.08039C5.63835 8.35066 6.31554 7.59919 7.05932 7.50375C7.19515 7.48622 7.30169 7.38105 7.31767 7.24861C7.33399 7.11584 7.25575 6.98924 7.1279 6.94152C6.6235 6.75227 6.28457 6.27087 6.28457 5.7437C6.28457 5.21394 6.61118 4.74617 7.11691 4.5514C7.27073 4.49232 7.34631 4.32255 7.28571 4.17258C7.22478 4.02228 7.05066 3.94827 6.89684 4.008C6.16072 4.29106 5.68496 4.97242 5.68496 5.7437C5.68496 6.27802 5.92434 6.78019 6.31787 7.12915C5.58042 7.49628 5.03906 8.27438 5.03906 9.08072V9.33099C5.03906 9.65788 5.27645 9.94094 5.60239 10.0033C5.66898 10.0166 5.73823 10.0283 5.80981 10.0399L5.925 10.0597C5.94298 10.063 5.96063 10.0646 5.97861 10.0646C6.12077 10.0646 6.24695 9.96528 6.27325 9.8244C6.30222 9.66502 6.19402 9.5131 6.03121 9.48453Z" fill="#3F79CF" style="fill:#3F79CF;fill:color(display-p3 0.2471 0.4733 0.8125);fill-opacity:1;"/>
<path d="M14.4427 9.05059C13.7518 8.37734 12.6279 8.37734 11.937 9.05059C11.6024 9.37682 11.418 9.81083 11.418 10.2721C11.418 10.7337 11.6021 11.1677 11.9367 11.4939C12.2713 11.8202 12.7164 12 13.1899 12C13.6633 12 14.1081 11.8202 14.4427 11.4939C14.7773 11.1677 14.9617 10.7337 14.9617 10.2721C14.9617 9.81083 14.7776 9.37682 14.4427 9.05059ZM14.0189 11.0804C13.5761 11.5128 12.8036 11.5128 12.3608 11.0804C11.9037 10.6347 11.9037 9.90984 12.3608 9.46414C12.5896 9.24114 12.8899 9.12979 13.1902 9.12979C13.4905 9.12979 13.7908 9.24146 14.0195 9.46414C14.4763 9.90951 14.4763 10.6347 14.0189 11.0804Z" fill="#3F79CF" style="fill:#3F79CF;fill:color(display-p3 0.2471 0.4733 0.8125);fill-opacity:1;"/>
<path d="M13.6945 9.98003H13.4901V9.78104C13.4901 9.61971 13.3559 9.48889 13.1904 9.48889C13.025 9.48889 12.8908 9.61971 12.8908 9.78104V9.98003H12.6864C12.5209 9.98003 12.3867 10.1108 12.3867 10.2722C12.3867 10.4335 12.5209 10.5643 12.6864 10.5643H12.8908V10.7633C12.8908 10.9247 13.025 11.0555 13.1904 11.0555C13.3559 11.0555 13.4901 10.9247 13.4901 10.7633V10.5643H13.6945C13.86 10.5643 13.9941 10.4335 13.9941 10.2722C13.9941 10.1108 13.86 9.98003 13.6945 9.98003Z" fill="#3F79CF" style="fill:#3F79CF;fill:color(display-p3 0.2471 0.4733 0.8125);fill-opacity:1;"/>
</g>
</g>
<defs>
<clipPath id="clip0_219_9607">
<rect width="18" height="18" fill="white" style="fill:white;fill-opacity:1;"/>
</clipPath>
<clipPath id="clip1_219_9607">
<rect width="10" height="9" fill="white" style="fill:white;fill-opacity:1;" transform="translate(5 3)"/>
</clipPath>
</defs>
</svg>
