<svg width="20" height="18" viewBox="0 0 20 18" fill="none" xmlns="http://www.w3.org/2000/svg">
<g clip-path="url(#clip0_266_11994)">
<path d="M11.3432 14.3276C11.0043 14.3455 10.653 14.3511 10.2893 14.3511C8.8057 14.3511 7.30091 14.2095 5.81979 13.9287C5.63792 13.8928 5.50588 13.7326 5.50588 13.547V12.9415C5.50588 10.9091 7.17136 9.25515 9.21802 9.25515C9.93428 9.25577 10.6449 9.25577 11.3606 9.25515C12.2575 9.25515 13.1214 9.57864 13.7922 10.1675C14.0251 10.3716 14.3789 10.3487 14.5838 10.1186C14.7887 9.8879 14.7663 9.53658 14.5346 9.33247C14.0525 8.91002 13.4932 8.59643 12.894 8.39542C13.9678 7.60248 14.6673 6.33699 14.6673 4.90884C14.6673 2.51147 12.7034 0.560669 10.2893 0.560669C7.87517 0.560669 5.91135 2.51147 5.91135 4.90884C5.91135 6.33576 6.61018 7.6 7.68209 8.39356C5.7681 9.03311 4.38477 10.828 4.38477 12.9409V13.5464C4.38477 14.2627 4.89736 14.8824 5.60616 15.021C7.15953 15.3154 8.73469 15.4644 10.2893 15.4644C10.6736 15.4644 11.0448 15.4576 11.4036 15.4385C11.7131 15.4224 11.9498 15.1601 11.9336 14.8527C11.9162 14.5466 11.6427 14.3097 11.3432 14.3276ZM7.03247 4.90884C7.03247 3.12504 8.49365 1.67462 10.2893 1.67462C12.085 1.67462 13.5461 3.12566 13.5461 4.90884C13.5461 6.68584 12.0949 8.13131 10.3074 8.14121H10.2712C8.48369 8.13131 7.03247 6.68584 7.03247 4.90884Z" fill="white" style="fill:white;fill-opacity:1;"/>
<path d="M15.6618 7.83882C15.4226 7.92974 15.2762 8.17096 15.3067 8.42393C15.3366 8.67629 15.5359 8.87669 15.7901 8.91009C16.4783 8.99977 17.1653 9.39748 17.6754 10.0024C17.7863 10.1335 17.9451 10.2015 18.1052 10.2015C18.2322 10.2015 18.3599 10.1589 18.4645 10.0717C18.7018 9.87435 18.7336 9.52304 18.5343 9.28676C18.1481 8.82906 17.6798 8.45733 17.1728 8.19817C17.9108 7.53389 18.3599 6.5758 18.3599 5.55587C18.3599 4.08628 17.4699 2.78801 16.0928 2.24866C15.805 2.13486 15.4793 2.27588 15.3659 2.56225C15.2526 2.84801 15.3939 3.17149 15.6817 3.28406C16.6278 3.65517 17.2388 4.54645 17.2388 5.55587C17.2394 6.56034 16.6054 7.47822 15.6618 7.83882Z" fill="white" style="fill:white;fill-opacity:1;"/>
<path d="M2.86486 12.6843L2.64063 12.6453C2.51856 12.6243 2.39897 12.6045 2.2825 12.581C2.1953 12.5637 2.1299 12.4826 2.1299 12.3911V11.9142C2.1299 10.5238 3.39676 9.09192 4.78819 8.91008C5.04231 8.87668 5.24162 8.67628 5.27152 8.42392C5.30204 8.17095 5.15567 7.92973 4.9165 7.83881C3.97289 7.47821 3.33884 6.56095 3.33884 5.55648C3.33884 4.54706 3.94985 3.65578 4.89594 3.28467C5.1837 3.1721 5.32508 2.84862 5.21172 2.56286C5.09774 2.27649 4.772 2.13547 4.48425 2.24927C3.10714 2.78862 2.2171 4.08689 2.2171 5.55648C2.2171 6.57456 2.66493 7.5314 3.40112 8.19631C2.02153 8.89585 1.00879 10.3784 1.00879 11.9148V12.3917C1.00879 13.0146 1.45288 13.5539 2.06264 13.6727C2.18721 13.698 2.31676 13.7203 2.45067 13.7425L2.66617 13.7803C2.6998 13.7865 2.73281 13.7896 2.76645 13.7896C3.0324 13.7896 3.26846 13.6003 3.31766 13.3319C3.37185 13.0282 3.16943 12.7387 2.86486 12.6843Z" fill="white" style="fill:white;fill-opacity:1;"/>
<path d="M18.5999 11.8574C17.3075 10.5746 15.2048 10.5746 13.9124 11.8574C13.2865 12.479 12.9414 13.3059 12.9414 14.1848C12.9414 15.0644 13.2858 15.8913 13.9118 16.5129C14.5377 17.1345 15.3705 17.4772 16.2562 17.4772C17.1418 17.4772 17.974 17.1345 18.5999 16.5129C19.2259 15.8913 19.5709 15.0644 19.5709 14.1848C19.5709 13.3059 19.2265 12.479 18.5999 11.8574ZM17.807 15.7249C16.9787 16.5488 15.5337 16.5488 14.7053 15.7249C13.8501 14.8757 13.8501 13.4946 14.7053 12.6454C15.1332 12.2204 15.695 12.0083 16.2568 12.0083C16.8186 12.0083 17.3804 12.2211 17.8083 12.6454C18.6628 13.494 18.6628 14.8757 17.807 15.7249Z" fill="white" style="fill:white;fill-opacity:1;"/>
<path d="M17.1975 13.6282H16.8151V13.249C16.8151 12.9416 16.5641 12.6924 16.2545 12.6924C15.945 12.6924 15.694 12.9416 15.694 13.249V13.6282H15.3115C15.002 13.6282 14.751 13.8775 14.751 14.1849C14.751 14.4923 15.002 14.7415 15.3115 14.7415H15.694V15.1207C15.694 15.4281 15.945 15.6773 16.2545 15.6773C16.5641 15.6773 16.8151 15.4281 16.8151 15.1207V14.7415H17.1975C17.5071 14.7415 17.7581 14.4923 17.7581 14.1849C17.7581 13.8775 17.5071 13.6282 17.1975 13.6282Z" fill="white" style="fill:white;fill-opacity:1;"/>
</g>
<defs>
<clipPath id="clip0_266_11994">
<rect width="18.7076" height="17.1486" fill="white" style="fill:white;fill-opacity:1;" transform="translate(0.94043 0.328369)"/>
</clipPath>
</defs>
</svg>
