<svg width="18" height="16" viewBox="0 0 18 16" fill="none" xmlns="http://www.w3.org/2000/svg">
<path d="M13.7497 0.252441C12.4933 0.252441 11.4225 1.05944 11.0278 2.18167C10.433 1.83086 9.74003 1.62921 9.00073 1.62921C8.25692 1.62921 7.56003 1.83333 6.96284 2.1881C6.55923 1.08244 5.49634 0.290865 4.2518 0.290865C2.66123 0.290865 1.36719 1.58371 1.36719 3.17279C1.36719 4.76186 2.66123 6.05471 4.2518 6.05471C4.51284 6.05471 4.76846 6.01994 5.01426 5.95294C5.16592 7.81213 6.5968 9.31517 8.42384 9.58006V12.5967H9.57769V9.58006C11.417 9.3134 12.8549 7.79183 12.9902 5.91529C13.235 5.98179 13.4896 6.01633 13.7497 6.01633C15.3403 6.01633 16.6343 4.72348 16.6343 3.1344C16.6343 1.54533 15.3403 0.252441 13.7497 0.252441ZM2.521 3.17279C2.521 2.21933 3.29742 1.44363 4.25176 1.44363C5.15265 1.44363 5.89461 2.13494 5.97496 3.01444C5.56826 3.48421 5.26934 4.04936 5.11626 4.67121C4.85461 4.82263 4.55942 4.90198 4.25176 4.90198C3.29742 4.90194 2.521 4.12625 2.521 3.17279ZM9.00073 8.46902C7.43134 8.46902 6.15457 7.19344 6.15457 5.62552C6.15457 4.0576 7.43134 2.78202 9.00073 2.78202C10.5701 2.78202 11.8469 4.0576 11.8469 5.62552C11.8469 7.19344 10.5701 8.46902 9.00073 8.46902ZM13.7497 4.86356C13.4376 4.86356 13.1385 4.78186 12.8741 4.6261C12.7175 4.0206 12.422 3.47033 12.0238 3.01129C12.0872 2.11513 12.8368 1.40525 13.7496 1.40525C14.704 1.40525 15.4804 2.18094 15.4804 3.1344C15.4804 4.08786 14.704 4.86356 13.7497 4.86356Z" fill="#3F79CF" style="fill:#3F79CF;fill:color(display-p3 0.2471 0.4733 0.8125);fill-opacity:1;"/>
<path d="M13.0366 10.7428C12.8313 10.4296 12.589 10.1399 12.3164 9.88174L13.1103 9.04517C13.4476 9.3647 13.7476 9.72336 14.0019 10.1111L13.0366 10.7428Z" fill="#3F79CF" style="fill:#3F79CF;fill:color(display-p3 0.2471 0.4733 0.8125);fill-opacity:1;"/>
<path d="M14.4 15.7477H3.60122C3.2826 15.7477 3.03906 15.4752 3.03906 15.1569V13.3784C3.03906 11.7233 3.69406 10.1844 4.89675 9.04529L5.69429 9.88187C4.72375 10.8011 4.19291 12.0429 4.19291 13.3784V14.5949H13.8083V13.3784C13.8083 12.8574 13.7331 12.3453 13.5701 11.8561L14.6613 11.4921C14.8634 12.0989 14.9621 12.7335 14.9621 13.3784V15.1569C14.9621 15.4752 14.7186 15.7477 14.4 15.7477Z" fill="#3F79CF" style="fill:#3F79CF;fill:color(display-p3 0.2471 0.4733 0.8125);fill-opacity:1;"/>
<path d="M3.15385 10.2144H0.576923C0.258308 10.2144 0 9.97242 0 9.65411V8.44392C0 7.47084 0.337846 6.51984 0.951308 5.76611L1.84654 6.49338C1.39338 7.05015 1.15385 7.72461 1.15385 8.44388V9.06165H3.15385V10.2144Z" fill="#3F79CF" style="fill:#3F79CF;fill:color(display-p3 0.2471 0.4733 0.8125);fill-opacity:1;"/>
<path d="M17.424 10.1759H14.8086V9.02313H16.8471V8.40543C16.8471 7.70128 16.6165 7.03801 16.1804 6.48728L17.0852 5.77197C17.6843 6.5284 18.0009 7.43901 18.0009 8.40543V9.61563C18.0009 9.93397 17.7426 10.1759 17.424 10.1759Z" fill="#3F79CF" style="fill:#3F79CF;fill:color(display-p3 0.2471 0.4733 0.8125);fill-opacity:1;"/>
</svg>
