<svg width="24" height="23" viewBox="0 0 24 23" fill="none" xmlns="http://www.w3.org/2000/svg">
<path d="M13.3508 18.4595C12.9161 18.4825 12.4654 18.4896 11.9988 18.4896C10.0955 18.4896 8.16496 18.3079 6.26483 17.9477C6.03151 17.9017 5.86211 17.6962 5.86211 17.4581V16.6813C5.86211 14.0738 7.99876 11.952 10.6244 11.952C11.5433 11.9528 12.455 11.9528 13.3731 11.952C14.5238 11.952 15.632 12.367 16.4926 13.1224C16.7915 13.3843 17.2453 13.3549 17.5082 13.0598C17.7711 12.7638 17.7423 12.3131 17.4451 12.0512C16.8266 11.5093 16.1091 11.107 15.3404 10.8491C16.7179 9.83181 17.6153 8.20831 17.6153 6.37613C17.6153 3.30054 15.0959 0.797852 11.9988 0.797852C8.90168 0.797852 6.38229 3.30054 6.38229 6.37613C6.38229 8.20673 7.27882 9.82864 8.65398 10.8467C6.19851 11.6672 4.42383 13.9699 4.42383 16.6805V17.4573C4.42383 18.3762 5.08144 19.1713 5.99076 19.349C7.98358 19.7267 10.0044 19.9179 11.9988 19.9179C12.4918 19.9179 12.968 19.9092 13.4283 19.8846C13.8254 19.864 14.129 19.5275 14.1083 19.1332C14.0859 18.7404 13.7351 18.4365 13.3508 18.4595ZM7.82057 6.37613C7.82057 4.08769 9.69513 2.22694 11.9988 2.22694C14.3024 2.22694 16.177 4.08848 16.177 6.37613C16.177 8.65585 14.3152 10.5102 12.022 10.5229H11.9756C9.68235 10.5102 7.82057 8.65585 7.82057 6.37613Z" fill="#6F767E" style="fill:#6F767E;fill:color(display-p3 0.4353 0.4627 0.4941);fill-opacity:1;"/>
<path d="M18.8903 10.1351C18.5834 10.2517 18.3957 10.5612 18.4348 10.8857C18.4732 11.2094 18.7289 11.4665 19.0549 11.5094C19.9378 11.6244 20.8192 12.1347 21.4736 12.9107C21.6158 13.0789 21.8196 13.1662 22.0249 13.1662C22.1879 13.1662 22.3517 13.1115 22.486 12.9996C22.7904 12.7465 22.8312 12.2957 22.5755 11.9926C22.0801 11.4054 21.4792 10.9286 20.8288 10.5961C21.7756 9.74386 22.3517 8.51474 22.3517 7.20626C22.3517 5.32091 21.2099 3.65536 19.4432 2.96343C19.0741 2.81743 18.6562 2.99835 18.5107 3.36574C18.3653 3.73233 18.5467 4.14733 18.9159 4.29175C20.1296 4.76785 20.9135 5.91127 20.9135 7.20626C20.9143 8.4949 20.1008 9.67245 18.8903 10.1351Z" fill="#6F767E" style="fill:#6F767E;fill:color(display-p3 0.4353 0.4627 0.4941);fill-opacity:1;"/>
<path d="M2.47295 16.3512L2.1853 16.3013C2.02868 16.2743 1.87527 16.2489 1.72584 16.2187C1.61398 16.1965 1.53008 16.0926 1.53008 15.9751V15.3633C1.53008 13.5796 3.15534 11.7426 4.9404 11.5093C5.26642 11.4665 5.52211 11.2094 5.56046 10.8856C5.59962 10.5611 5.41184 10.2516 5.10501 10.135C3.89445 9.67239 3.08103 8.49563 3.08103 7.20699C3.08103 5.91201 3.86489 4.76858 5.07864 4.29248C5.4478 4.14806 5.62918 3.73306 5.48376 3.36647C5.33753 2.99908 4.91963 2.81816 4.55047 2.96417C2.78378 3.6561 1.64194 5.32165 1.64194 7.20699C1.64194 8.51309 2.21646 9.74063 3.16093 10.5936C1.39104 11.4911 0.0917969 13.3931 0.0917969 15.3641V15.9759C0.0917969 16.775 0.661516 17.4669 1.44378 17.6193C1.60359 17.6518 1.76979 17.6804 1.94159 17.7089L2.21806 17.7573C2.2612 17.7653 2.30355 17.7692 2.3467 17.7692C2.6879 17.7692 2.99073 17.5264 3.05386 17.182C3.12338 16.7924 2.86369 16.4211 2.47295 16.3512Z" fill="#6F767E" style="fill:#6F767E;fill:color(display-p3 0.4353 0.4627 0.4941);fill-opacity:1;"/>
<path d="M22.6578 15.2902C20.9997 13.6445 18.3022 13.6445 16.6441 15.2902C15.8411 16.0877 15.3984 17.1486 15.3984 18.2761C15.3984 19.4045 15.8403 20.4654 16.6433 21.2628C17.4464 22.0603 18.5147 22.4999 19.651 22.4999C20.7872 22.4999 21.8547 22.0603 22.6578 21.2628C23.4608 20.4654 23.9035 19.4045 23.9035 18.2761C23.9035 17.1486 23.4616 16.0877 22.6578 15.2902ZM21.6406 20.2519C20.5778 21.3089 18.7241 21.3089 17.6613 20.2519C16.5642 19.1625 16.5642 17.3906 17.6613 16.3011C18.2103 15.756 18.931 15.4838 19.6518 15.4838C20.3725 15.4838 21.0932 15.7568 21.6422 16.3011C22.7385 17.3898 22.7385 19.1625 21.6406 20.2519Z" fill="#6F767E" style="fill:#6F767E;fill:color(display-p3 0.4353 0.4627 0.4941);fill-opacity:1;"/>
<path d="M20.8613 17.5621H20.3707V17.0757C20.3707 16.6814 20.0487 16.3616 19.6516 16.3616C19.2544 16.3616 18.9324 16.6814 18.9324 17.0757V17.5621H18.4418C18.0447 17.5621 17.7227 17.8819 17.7227 18.2763C17.7227 18.6706 18.0447 18.9904 18.4418 18.9904H18.9324V19.4768C18.9324 19.8712 19.2544 20.191 19.6516 20.191C20.0487 20.191 20.3707 19.8712 20.3707 19.4768V18.9904H20.8613C21.2584 18.9904 21.5804 18.6706 21.5804 18.2763C21.5804 17.8819 21.2584 17.5621 20.8613 17.5621Z" fill="#6F767E" style="fill:#6F767E;fill:color(display-p3 0.4353 0.4627 0.4941);fill-opacity:1;"/>
</svg>
