<svg width="22" height="22" viewBox="0 0 22 22" fill="none" xmlns="http://www.w3.org/2000/svg">
<path d="M21.75 5V17C21.7489 18.2595 21.2482 19.467 20.3576 20.3576C19.467 21.2482 18.2595 21.7489 17 21.75H5C4.47235 21.7515 3.94826 21.6636 3.45 21.49C2.51588 21.1674 1.70561 20.5615 1.13204 19.7567C0.558472 18.9519 0.250146 17.9883 0.25 17V5C0.251059 3.74055 0.751844 2.53298 1.64241 1.64241C2.53298 0.751844 3.74055 0.251059 5 0.25H17C18.2595 0.251059 19.467 0.751844 20.3576 1.64241C21.2482 2.53298 21.7489 3.74055 21.75 5Z" fill="#E1F5FE" style="fill:#E1F5FE;fill:color(display-p3 0.8824 0.9608 0.9961);fill-opacity:1;"/>
<path d="M13.75 18V21.75H5C4.47235 21.7515 3.94826 21.6636 3.45 21.49C2.51588 21.1674 1.70561 20.5615 1.13204 19.7567C0.558472 18.9519 0.250146 17.9882 0.25 17V14.27L3.41 12.16C3.88229 11.8439 4.44129 11.6827 5.00937 11.6989C5.57745 11.715 6.1264 11.9076 6.58 12.25L10.07 14.87L13.45 17.4C13.5438 17.4692 13.6199 17.5597 13.672 17.664C13.7241 17.7683 13.7509 17.8834 13.75 18Z" fill="#62D8B6" style="fill:#62D8B6;fill:color(display-p3 0.3843 0.8471 0.7137);fill-opacity:1;"/>
<path d="M7.625 8.125C9.00571 8.125 10.125 7.00571 10.125 5.625C10.125 4.24429 9.00571 3.125 7.625 3.125C6.24429 3.125 5.125 4.24429 5.125 5.625C5.125 7.00571 6.24429 8.125 7.625 8.125Z" fill="#FFDE76" style="fill:#FFDE76;fill:color(display-p3 1.0000 0.8706 0.4627);fill-opacity:1;"/>
<path d="M21.7492 12.0401V17.0001C21.7482 18.2595 21.2474 19.4671 20.3568 20.3576C19.4662 21.2482 18.2587 21.749 16.9992 21.7501H4.99922C4.47157 21.7516 3.94748 21.6637 3.44922 21.4901L14.4492 10.4901C14.8555 10.0806 15.3808 9.80992 15.95 9.71655C16.5192 9.62317 17.1034 9.71189 17.6192 9.97006L21.7492 12.0401Z" fill="#4CC19D" style="fill:#4CC19D;fill:color(display-p3 0.2980 0.7569 0.6157);fill-opacity:1;"/>
</svg>
