<svg width="38" height="34" viewBox="0 0 38 34" fill="none" xmlns="http://www.w3.org/2000/svg">
<path d="M6.94 27.3024H31.0588C33.8396 27.3024 36.1023 25.0396 36.1023 22.2576V5.54474C36.1023 2.76275 33.8396 0.5 31.0588 0.5H6.94C4.15924 0.5 1.89648 2.76275 1.89648 5.54474V22.2576C1.89648 25.0396 4.15924 27.3024 6.94 27.3024ZM4.11125 5.54474C4.11125 3.98456 5.38105 2.716 6.94 2.716H31.0588C32.619 2.716 33.8875 3.98456 33.8875 5.54474V22.2576C33.8875 23.8178 32.6177 25.0864 31.0588 25.0864H6.94C5.37982 25.0864 4.11125 23.8178 4.11125 22.2576V5.54474Z" fill="#3F79CF" style="fill:#3F79CF;fill:color(display-p3 0.2471 0.4733 0.8125);fill-opacity:1;"/>
<path d="M15.7584 20.0956C16.2677 20.3589 16.819 20.4893 17.369 20.4893C18.0777 20.4893 18.7815 20.2727 19.3856 19.847L23.7573 16.7562C24.6839 16.1016 25.2363 15.0336 25.2363 13.8991C25.2363 12.7659 24.6826 11.6979 23.7573 11.0445L19.3844 7.95495C18.3115 7.197 16.9223 7.10103 15.7571 7.7064C14.5919 8.30931 13.8672 9.50036 13.8672 10.812V16.99C13.8684 18.3016 14.5919 19.4926 15.7584 20.0956ZM16.0832 10.812C16.0832 10.3235 16.3416 9.89779 16.7759 9.67262C16.9654 9.57419 17.1684 9.52497 17.369 9.52497C17.6261 9.52497 17.8821 9.60495 18.106 9.76367L22.4777 12.8533C22.8222 13.0957 23.0191 13.4783 23.0191 13.9004C23.0191 14.3224 22.821 14.7038 22.4765 14.9487L18.1048 18.0383C17.7061 18.32 17.2103 18.3545 16.7747 18.1293C16.3403 17.9042 16.082 17.4797 16.082 16.99L16.0832 10.812Z" fill="#3F79CF" style="fill:#3F79CF;fill:color(display-p3 0.2471 0.4733 0.8125);fill-opacity:1;"/>
<path d="M36.2253 31.1584H1.7734C1.16188 31.1584 0.666016 31.6543 0.666016 32.2658C0.666016 32.8774 1.16188 33.3732 1.7734 33.3732H36.2253C36.8368 33.3732 37.3327 32.8774 37.3327 32.2658C37.3327 31.6543 36.8368 31.1584 36.2253 31.1584Z" fill="#3F79CF" style="fill:#3F79CF;fill:color(display-p3 0.2471 0.4733 0.8125);fill-opacity:1;"/>
</svg>
