<svg width="26" height="28" viewBox="0 0 26 28" fill="none" xmlns="http://www.w3.org/2000/svg">
<path d="M6.40688 9.67192C7.23198 7.74906 8.63874 6.00943 10.5281 5.05446C17.1568 1.70238 25.313 9.04677 20.0393 15.3047C18.3266 17.4453 14.395 17.4949 13.1154 14.9188L13.1197 14.9124C19.3047 17.6673 21.515 8.60486 15.4248 7.25972C12.1201 6.5311 7.23413 10.4587 9.96579 16.1325C11.7969 19.9373 17.1159 20.9504 20.7998 19.0168C24.1389 17.2642 25.955 14.3346 25.955 10.8058C25.955 10.3294 25.9205 9.83791 25.8537 9.33994C25.8473 9.3227 25.8451 9.3033 25.8387 9.28605C24.7787 5.11482 21.5904 1.76274 17.4584 0.562032C16.252 0.212812 14.9724 0.0252686 13.6496 0.0252686C6.11174 0.0252686 0 6.14092 0 13.6858C0 21.2307 6.11174 27.3463 13.6496 27.3463C17.8893 27.3463 21.6766 25.4127 24.182 22.3775C24.1863 22.371 24.1906 22.3645 24.1971 22.3602C24.5849 21.845 24.9468 21.2889 25.2764 20.6939C17.2107 28.5212 2.12198 21.0431 6.40688 9.67192ZM14.6988 9.91982C15.61 9.91982 16.349 10.6592 16.349 11.5711C16.349 12.4829 15.61 13.2202 14.6988 13.2202C13.7875 13.2202 13.0507 12.4829 13.0507 11.5711C13.0507 10.6592 13.7897 9.91982 14.6988 9.91982Z" fill="#3F79CF" style="fill:#3F79CF;fill:color(display-p3 0.2471 0.4733 0.8125);fill-opacity:1;"/>
</svg>
