<svg width="29" height="35" viewBox="0 0 29 35" fill="none" xmlns="http://www.w3.org/2000/svg">
<g clip-path="url(#clip0_1_988)">
<path fill-rule="evenodd" clip-rule="evenodd" d="M20.7099 33.066C16.7786 35.2304 12.0577 35.6996 7.96488 33.8517C7.44578 33.6176 6.96092 33.3536 6.50781 33.066C3.44849 31.1236 1.8428 28.0935 1.01135 25.7004C0.129002 23.16 -0.0262261 18.4158 0.00299699 13.8133C0.0253071 10.3446 0.152255 6.95631 0.152255 4.65293H9.02068C9.02068 8.69208 9.02068 12.7316 9.02068 16.771C9.14606 20.2778 9.98818 24.4912 14.6164 25.6328C20.8651 27.1738 25.8035 20.5475 24.1909 14.229C22.5783 7.91084 17.3879 5.54789 17.3879 5.54789C22.4033 8.19207 26.7098 19.2147 20.2144 20.8047C16.7353 21.6568 15.1487 19.2384 14.3899 16.2236C12.7018 9.51529 15.2417 3.44151 6.60428 -0.000259869C13.1895 -0.014674 17.9997 1.43731 21.4342 3.69744C30.247 9.49767 30.0051 20.6183 27.4667 25.941C27.2386 26.4192 26.9882 26.8817 26.717 27.3282C25.2272 29.7809 23.1166 31.7412 20.7099 33.066Z" fill="#3F79CF" style="fill:#3F79CF;fill:color(display-p3 0.2471 0.4733 0.8125);fill-opacity:1;"/>
</g>
<defs>
<clipPath id="clip0_1_988">
<rect width="29" height="35" fill="white" style="fill:white;fill-opacity:1;"/>
</clipPath>
</defs>
</svg>
