<svg width="13" height="14" viewBox="0 0 13 14" fill="none" xmlns="http://www.w3.org/2000/svg">
<path d="M3.209 4.94319C3.62226 3.95787 4.32686 3.06644 5.27316 2.57709C8.59329 0.859397 12.6785 4.62285 10.037 7.82957C9.1792 8.92646 7.20999 8.95187 6.56906 7.63184L6.57122 7.62853C9.66907 9.04024 10.7761 4.3964 7.72576 3.70712C6.07055 3.33375 3.62334 5.34638 4.99153 8.25375C5.9087 10.2034 8.57279 10.7226 10.4179 9.73173C12.0904 8.83368 13 7.33249 13 5.52422C13 5.2801 12.9827 5.02825 12.9493 4.77308C12.946 4.76424 12.945 4.7543 12.9417 4.74546C12.4109 2.60802 10.8139 0.890327 8.74436 0.275051C8.14011 0.0961023 7.49917 0 6.83665 0C3.06117 0 0 3.13382 0 7C0 10.8662 3.06117 14 6.83665 14C8.96016 14 10.8571 13.0092 12.112 11.4538C12.1141 11.4505 12.1163 11.4472 12.1195 11.445C12.3137 11.181 12.495 10.896 12.6601 10.5911C8.62027 14.602 1.06283 10.7701 3.209 4.94319ZM7.36213 5.07022C7.81856 5.07022 8.18866 5.44911 8.18866 5.91636C8.18866 6.38362 7.81856 6.7614 7.36213 6.7614C6.90571 6.7614 6.53669 6.38362 6.53669 5.91636C6.53669 5.44911 6.90679 5.07022 7.36213 5.07022Z" fill="white" style="fill:white;fill-opacity:1;"/>
<path d="M7.60168 13.1616C4.09487 13.1616 1.25274 10.2509 1.25274 6.66199C1.25274 3.07196 4.09595 0.16238 7.60168 0.16238C7.96315 0.16238 8.31814 0.195518 8.66343 0.254063C8.08184 0.0883699 7.46896 0 6.83665 0C3.06117 0 0 3.13382 0 7C0 10.8662 3.06117 14 6.83665 14C8.96016 14 10.8571 13.0092 12.112 11.4538C12.1141 11.4505 12.1163 11.4472 12.1195 11.445C12.3137 11.181 12.495 10.896 12.6601 10.5911C12.659 10.5922 12.6569 10.5944 12.6558 10.5956C11.4948 12.1542 9.66368 13.1616 7.60168 13.1616Z" fill="white" style="fill:white;fill-opacity:1;"/>
</svg>
