<svg width="11" height="11" viewBox="0 0 11 11" fill="none" xmlns="http://www.w3.org/2000/svg">
    <path d="M7.69111 0.80359L7.69111 0.803404C6.9704 0.781696 6.26873 1.03675 5.73019 1.5162L5.50161 1.71969L5.27304 1.5162C4.7345 1.03675 4.03283 0.781696 3.31212 0.803404L3.30059 0.803752L3.30059 0.803558C2.44661 0.80064 1.63622 1.1804 1.09202 1.83853C0.631064 2.39777 0.111628 3.44528 0.45495 5.21754L7.69111 0.80359ZM7.69111 0.80359L7.7024 0.803559M7.69111 0.80359L7.7024 0.803559M7.7024 0.803559C8.55542 0.801237 9.36469 1.18085 9.90824 1.83826C10.3698 2.40078 10.8882 3.44584 10.545 5.2176L10.545 5.21769C10.2792 6.59133 9.12873 7.88851 7.95534 8.88191C6.7963 9.86315 5.68397 10.491 5.60101 10.537L5.60039 10.5374C5.53796 10.5722 5.46197 10.5722 5.39954 10.5374L5.398 10.5365M7.7024 0.803559L5.398 10.5365M5.398 10.5365C5.31689 10.4918 4.20497 9.86448 3.04582 8.88314M5.398 10.5365L3.04582 8.88314M3.04582 8.88314C1.87249 7.8898 0.72152 6.59217 0.454961 5.2176L3.04582 8.88314Z" stroke="white" style="stroke:white;stroke-opacity:1;" stroke-width="0.6875"/>
</svg>
