<svg width="26" height="26" viewBox="0 0 26 26" fill="none" xmlns="http://www.w3.org/2000/svg">
<path d="M13.0003 22.7227L11.8899 21.7206C9.98021 19.967 8.4014 18.4543 7.15347 17.1825C5.90554 15.9107 4.91144 14.7737 4.17116 13.7716C3.43088 12.7696 2.91178 11.8623 2.61387 11.0498C2.31595 10.2373 2.16699 9.41574 2.16699 8.58519C2.16699 6.95739 2.71317 5.59801 3.80553 4.50706C4.8979 3.41609 6.24755 2.87061 7.85449 2.87061C8.88366 2.87061 9.83609 3.11436 10.7118 3.60186C11.5875 4.08936 12.3503 4.79352 13.0003 5.71436C13.7587 4.73936 14.5621 4.02165 15.4107 3.56123C16.2594 3.10081 17.1712 2.87061 18.1462 2.87061C19.7531 2.87061 21.1028 3.41609 22.1951 4.50706C23.2875 5.59801 23.8337 6.95739 23.8337 8.58519C23.8337 9.41574 23.6847 10.2373 23.3868 11.0498C23.0889 11.8623 22.5698 12.7696 21.8295 13.7716C21.0892 14.7737 20.0951 15.9107 18.8472 17.1825C17.5993 18.4543 16.0204 19.967 14.1107 21.7206L13.0003 22.7227ZM13.0003 20.5831C14.8282 18.904 16.3324 17.4641 17.5129 16.2634C18.6934 15.0626 19.6312 14.0109 20.3264 13.1081C21.0215 12.2053 21.509 11.4006 21.7889 10.694C22.0687 9.98741 22.2087 9.28577 22.2087 8.58912C22.2087 7.39483 21.8295 6.41401 21.0712 5.64665C20.3128 4.87929 19.3399 4.49561 18.1523 4.49561C17.222 4.49561 16.3609 4.77998 15.5692 5.34873C14.7774 5.91748 14.1378 6.71644 13.6503 7.74561H12.3232C11.8538 6.73449 11.2232 5.94005 10.4315 5.36227C9.63972 4.78449 8.77869 4.49561 7.8484 4.49561C6.66079 4.49561 5.68783 4.87929 4.92949 5.64665C4.17116 6.41401 3.79199 7.39637 3.79199 8.59375C3.79199 9.29221 3.93192 9.99804 4.21178 10.7112C4.49165 11.4244 4.97915 12.2369 5.67428 13.1487C6.36942 14.0605 7.31283 15.1123 8.50449 16.3039C9.69616 17.4956 11.1948 18.922 13.0003 20.5831Z" fill="white"/>
</svg>
