<svg width="24" height="24" viewBox="0 0 24 24" fill="none" xmlns="http://www.w3.org/2000/svg">
<path d="M7 8C7 6.67392 7.52678 5.40215 8.46447 4.46447C9.40215 3.52678 10.6739 3 12 3C13.3261 3 14.5979 3.52678 15.5355 4.46447C16.4732 5.40215 17 6.67392 17 8V11C17 12.3261 16.4732 13.5979 15.5355 14.5355C14.5979 15.4732 13.3261 16 12 16C10.6739 16 9.40215 15.4732 8.46447 14.5355C7.52678 13.5979 7 12.3261 7 11V8Z" stroke="#A3A3A3" style="stroke:#A3A3A3;stroke:color(display-p3 0.6392 0.6392 0.6392);stroke-opacity:1;" stroke-width="1.5"/>
<path d="M11 8H13M10 11H14" stroke="#A3A3A3" style="stroke:#A3A3A3;stroke:color(display-p3 0.6392 0.6392 0.6392);stroke-opacity:1;" stroke-width="1.5" stroke-linecap="round"/>
<path d="M20.75 10C20.75 9.80109 20.671 9.61032 20.5303 9.46967C20.3897 9.32902 20.1989 9.25 20 9.25C19.8011 9.25 19.6103 9.32902 19.4697 9.46967C19.329 9.61032 19.25 9.80109 19.25 10H20.75ZM4.75 10C4.75 9.80109 4.67098 9.61032 4.53033 9.46967C4.38968 9.32902 4.19891 9.25 4 9.25C3.80109 9.25 3.61032 9.32902 3.46967 9.46967C3.32902 9.61032 3.25 9.80109 3.25 10H4.75ZM15.512 17.344C15.338 17.4405 15.2095 17.6022 15.1548 17.7935C15.1 17.9848 15.1235 18.19 15.22 18.364C15.3165 18.538 15.4782 18.6665 15.6695 18.7212C15.8608 18.776 16.066 18.7525 16.24 18.656L15.512 17.344ZM19.25 10V11H20.75V10H19.25ZM4.75 11V10H3.25V11H4.75ZM12 18.25C10.0772 18.25 8.23311 17.4862 6.87348 16.1265C5.51384 14.7669 4.75 12.9228 4.75 11H3.25C3.25 13.3206 4.17187 15.5462 5.81282 17.1872C7.45376 18.8281 9.67936 19.75 12 19.75V18.25ZM19.25 11C19.2505 12.2949 18.904 13.5664 18.2466 14.682C17.5892 15.7977 16.645 16.7169 15.512 17.344L16.24 18.656C17.607 17.899 18.7463 16.7896 19.5394 15.4432C20.3325 14.0969 20.7506 12.5626 20.75 11H19.25Z" fill="#A3A3A3" style="fill:#A3A3A3;fill:color(display-p3 0.6392 0.6392 0.6392);fill-opacity:1;"/>
<path d="M12 19V22" stroke="#A3A3A3" style="stroke:#A3A3A3;stroke:color(display-p3 0.6392 0.6392 0.6392);stroke-opacity:1;" stroke-width="1.5" stroke-linecap="round"/>
</svg>
