<svg width="24" height="24" viewBox="0 0 24 24" fill="none" xmlns="http://www.w3.org/2000/svg">
<path d="M7.875 8.99927C3.94477 8.99927 0.749999 12.1944 0.75 16.125C0.749999 20.0556 3.94477 23.25 7.875 23.25C11.8052 23.25 15 20.0556 15 16.125C15 12.1944 11.8052 8.99927 7.875 8.99927Z" fill="#FFCA28" style="fill:#FFCA28;fill:color(display-p3 1.0000 0.7922 0.1569);fill-opacity:1;"/>
<path d="M16.1293 1.91449L17.2089 11.9326H15.3764C15.044 11.932 14.8753 12.3321 15.1076 12.5698L18.8576 16.3893C19.0045 16.5387 19.2453 16.5387 19.3923 16.3893L23.143 12.5698C23.3753 12.3321 23.2066 11.932 22.8742 11.9326H21.0417L22.1242 1.91449C22.1477 1.69274 21.9736 1.49959 21.7507 1.49994H16.4999C16.488 1.49937 16.476 1.49937 16.464 1.49994C16.2567 1.52107 16.1063 1.7073 16.1293 1.91449Z" fill="#549AD4" style="fill:#549AD4;fill:color(display-p3 0.3294 0.6039 0.8314);fill-opacity:1;"/>
<path d="M7.49365 0.750027C7.28685 0.752436 7.12105 0.916744 7.12307 1.12356V6.74855C7.13384 7.23758 7.86217 7.23758 7.87302 6.74855V1.12356C7.875 0.913304 7.70389 0.747575 7.49365 0.750027Z" fill="#C4DCF0" style="fill:#C4DCF0;fill:color(display-p3 0.7686 0.8627 0.9412);fill-opacity:1;"/>
<path d="M2.99351 4.12506C2.78612 4.12931 2.62106 4.29413 2.62512 4.50152V8.99932C2.61379 9.51053 3.38642 9.51053 3.37508 8.99932V4.50152C3.37919 4.28896 3.20607 4.12131 2.99351 4.12506Z" fill="#C4DCF0" style="fill:#C4DCF0;fill:color(display-p3 0.7686 0.8627 0.9412);fill-opacity:1;"/>
<path d="M11.9915 4.12508C11.7841 4.12933 11.6191 4.29415 11.6231 4.50153V8.99933C11.6231 9.49982 12.3738 9.49982 12.3738 8.99933V4.50153C12.3779 4.28868 12.2044 4.1209 11.9915 4.12508Z" fill="#C4DCF0" style="fill:#C4DCF0;fill:color(display-p3 0.7686 0.8627 0.9412);fill-opacity:1;"/>
<path d="M7.87476 10.8735C4.9697 10.8735 2.62109 13.2285 2.62109 16.125C2.62109 19.0215 4.97849 21.3787 7.87476 21.3787C10.771 21.3787 13.1262 19.0215 13.1262 16.125C13.1262 13.2285 10.7798 10.8735 7.87476 10.8735ZM7.87476 11.6206C10.345 11.6206 12.3755 13.6338 12.3755 16.125C12.3755 18.6162 10.3512 20.6287 7.87476 20.6287C5.39831 20.6287 3.37109 18.6162 3.37109 16.125C3.37109 13.6338 5.40452 11.6206 7.87476 11.6206Z" fill="#E4EFF8" style="fill:#E4EFF8;fill:color(display-p3 0.8941 0.9373 0.9725);fill-opacity:1;"/>
<path d="M7.5012 13.5037C7.50064 13.6421 7.49865 13.7822 7.49893 13.9183C6.85241 14.0806 6.37695 14.6611 6.37695 15.3494C6.37695 15.8543 6.63159 16.1466 6.93576 16.2965C7.21468 16.4338 7.55755 16.4661 7.83878 16.4957C8.12001 16.5252 8.34034 16.5528 8.48327 16.6231C8.53161 16.6469 8.62755 16.6747 8.62755 16.8941C8.62754 17.298 8.29624 17.6195 7.87979 17.6243C7.50735 17.594 7.27264 17.4073 7.14668 17.0054C6.99728 16.5274 6.28028 16.7515 6.42968 17.2295C6.59034 17.7421 6.94576 18.1703 7.50115 18.3179V18.7464C7.50115 19.2461 8.25111 19.2488 8.25111 18.7464V18.3289C8.90775 18.1585 9.37748 17.582 9.3775 16.8941C9.3775 16.4596 9.18106 16.1277 8.81577 15.9478C8.5116 15.798 8.07964 15.7658 7.91568 15.7486C7.57596 15.7129 7.38594 15.6821 7.26825 15.624C7.15059 15.566 7.12691 15.4912 7.12691 15.3493C7.12691 14.9455 7.46478 14.6259 7.86368 14.6213C8.2259 14.6359 8.48153 14.836 8.60777 15.2387C8.74266 15.7079 9.47825 15.5126 9.32184 15.0146C9.16071 14.5006 8.81758 14.083 8.2489 13.9233C8.2489 13.7372 8.25116 13.5 8.25116 13.5036C8.25527 13.2919 8.08349 13.1188 7.87179 13.1214C7.66353 13.1242 7.49714 13.2955 7.5012 13.5037Z" fill="#E4EFF8" style="fill:#E4EFF8;fill:color(display-p3 0.8941 0.9373 0.9725);fill-opacity:1;"/>
<path d="M16.3385 17.3057C15.9045 17.5547 16.2347 18.2058 16.6688 17.9568L17.6868 17.3943C17.8622 17.2937 17.9319 17.054 17.8182 16.871C17.7433 16.7505 17.5329 16.6198 17.3126 16.7439L16.3385 17.3057Z" fill="#C4DCF0" style="fill:#C4DCF0;fill:color(display-p3 0.7686 0.8627 0.9412);fill-opacity:1;"/>
<path d="M20.5628 17.3943L21.5369 17.9568C21.9709 18.2078 22.3474 17.5567 21.9133 17.3057L20.9392 16.7439C20.8742 16.7049 20.8033 16.6909 20.7276 16.6956C20.361 16.7154 20.2382 17.2023 20.5628 17.3943Z" fill="#C4DCF0" style="fill:#C4DCF0;fill:color(display-p3 0.7686 0.8627 0.9412);fill-opacity:1;"/>
<path d="M19.1206 17.6331C18.9127 17.6359 18.7464 17.8009 18.7501 18.0088V19.1331C18.761 19.6221 19.4892 19.6221 19.5 19.1331V18.0088C19.5037 17.7974 19.332 17.6306 19.1206 17.6331Z" fill="#C4DCF0" style="fill:#C4DCF0;fill:color(display-p3 0.7686 0.8627 0.9412);fill-opacity:1;"/>
<path d="M3.23144 10.7307C1.71487 12.0382 0.749999 13.969 0.75 16.125C0.749999 20.0556 3.94477 23.25 7.875 23.25C10.0291 23.25 11.9576 22.286 13.2649 20.7715C12.017 21.8459 10.3979 22.5 8.625 22.5C4.69477 22.5 1.5 19.3056 1.5 15.375C1.5 13.6004 2.15536 11.9791 3.23144 10.7307Z" fill="#ECB200" style="fill:#ECB200;fill:color(display-p3 0.9255 0.6980 0.0000);fill-opacity:1;"/>
<path d="M17.9421 12.7164L16.7959 1.50007H16.5C16.4881 1.49949 16.4761 1.49949 16.4641 1.50004C16.2567 1.52116 16.1063 1.70738 16.1293 1.91457L17.2089 11.9326C16.5981 11.9326 15.9872 11.9326 15.3764 11.9326C15.044 11.9321 14.8753 12.3322 15.1076 12.5698L15.7558 13.2298L18.8576 16.3894C19.0045 16.5388 19.2453 16.5388 19.3923 16.3894L19.5453 16.2334L16.099 12.7171L17.9421 12.7164Z" fill="#3588CB" style="fill:#3588CB;fill:color(display-p3 0.2078 0.5333 0.7961);fill-opacity:1;"/>
</svg>
