<svg width="36" height="36" viewBox="0 0 36 36" fill="none" xmlns="http://www.w3.org/2000/svg">
<g clip-path="url(#clip0_174_728)">
<path d="M18.0095 10.7987C16.3264 10.7987 14.9619 9.43423 14.9619 7.75113V3.04733C14.9619 1.3645 16.3264 0 18.0095 0C19.6926 0 21.0569 1.3645 21.0569 3.04733V7.75113C21.0569 9.43423 19.6924 10.7987 18.0095 10.7987Z" fill="#E2E2E2" style="fill:#E2E2E2;fill:color(display-p3 0.8875 0.8875 0.8875);fill-opacity:1;"/>
<path d="M18.0095 36.0001C16.3264 36.0001 14.9619 34.6356 14.9619 32.9528V28.249C14.9619 26.5659 16.3264 25.2017 18.0095 25.2017C19.6924 25.2017 21.0569 26.5659 21.0569 28.249V32.9528C21.0569 34.6356 19.6924 36.0001 18.0095 36.0001Z" fill="#E2E2E2" style="fill:#E2E2E2;fill:color(display-p3 0.8875 0.8875 0.8875);fill-opacity:1;"/>
<path d="M19.9416 14.9524H16.1172C14.9719 14.9524 14.0403 14.0208 14.0403 12.8754C14.0403 11.7304 14.9719 10.7985 16.1172 10.7985H23.8733C25.5564 10.7985 26.9206 9.43423 26.9206 7.75113C26.9206 6.06802 25.5564 4.70352 23.8733 4.70352H16.1172C11.6112 4.70352 7.94531 8.36966 7.94531 12.8754C7.94531 17.3815 11.6112 21.0473 16.1172 21.0473H19.9416C21.0869 21.0473 22.0185 21.9792 22.0185 23.1243C22.0185 24.2696 21.0869 25.2013 19.9416 25.2013H12.4563C10.7732 25.2013 9.40897 26.5658 9.40897 28.2489C9.40897 29.932 10.7732 31.2962 12.4563 31.2962H19.9416C24.4476 31.2962 28.1135 27.6303 28.1135 23.1243C28.1135 18.6183 24.4476 14.9524 19.9416 14.9524Z" fill="white" style="fill:white;fill-opacity:1;"/>
<path d="M12.9111 28.2487C12.9111 26.5656 14.2756 25.201 15.9584 25.201H12.4568C10.7737 25.201 9.40918 26.5656 9.40918 28.2487C9.40918 29.9318 10.7737 31.296 12.4568 31.296H15.9584C14.2756 31.2963 12.9111 29.9318 12.9111 28.2487Z" fill="#E2E2E2" style="fill:#E2E2E2;fill:color(display-p3 0.8875 0.8875 0.8875);fill-opacity:1;"/>
<path d="M22.007 18.961C18.7399 15.8412 11.5988 20.1712 8.33121 10.392C8.08072 11.1753 7.94531 12.0103 7.94531 12.8757C7.94531 17.3815 11.6112 21.0473 16.1172 21.0473H19.9416C21.0869 21.0473 22.0185 21.9792 22.0185 23.1246C22.0185 23.7049 21.7804 24.2295 21.3951 24.6066C21.3951 24.6066 25.3084 22.1138 22.007 18.961Z" fill="#E2E2E2" style="fill:#E2E2E2;fill:color(display-p3 0.8875 0.8875 0.8875);fill-opacity:1;"/>
</g>
<defs>
<clipPath id="clip0_174_728">
<rect width="36" height="36" fill="white" style="fill:white;fill-opacity:1;"/>
</clipPath>
</defs>
</svg>
