<svg width="24" height="24" viewBox="0 0 24 24" fill="none" xmlns="http://www.w3.org/2000/svg">
<g clip-path="url(#clip0_168_7072)">
<path d="M12.0063 7.19916C10.8843 7.19916 9.97461 6.28949 9.97461 5.16742V2.03156C9.97461 0.909668 10.8843 0 12.0063 0C13.1284 0 14.0379 0.909668 14.0379 2.03156V5.16742C14.0379 6.28949 13.1282 7.19916 12.0063 7.19916Z" fill="#00C140" style="fill:#00C140;fill:color(display-p3 0.0000 0.7569 0.2510);fill-opacity:1;"/>
<path d="M12.0063 24C10.8843 24 9.97461 23.0903 9.97461 21.9684V18.8326C9.97461 17.7105 10.8843 16.801 12.0063 16.801C13.1282 16.801 14.0379 17.7105 14.0379 18.8326V21.9684C14.0379 23.0903 13.1282 24 12.0063 24Z" fill="#00C140" style="fill:#00C140;fill:color(display-p3 0.0000 0.7569 0.2510);fill-opacity:1;"/>
<path d="M13.2944 9.9682H10.7448C9.98126 9.9682 9.36017 9.34711 9.36017 8.58356C9.36017 7.82019 9.98126 7.19891 10.7448 7.19891H15.9155C17.0376 7.19891 17.9471 6.28943 17.9471 5.16736C17.9471 4.04529 17.0376 3.13562 15.9155 3.13562H10.7448C7.74078 3.13562 5.29688 5.57971 5.29688 8.58356C5.29688 11.5876 7.74078 14.0315 10.7448 14.0315H13.2944C14.0579 14.0315 14.679 14.6528 14.679 15.4161C14.679 16.1797 14.0579 16.8008 13.2944 16.8008H8.3042C7.18213 16.8008 6.27264 17.7104 6.27264 18.8325C6.27264 19.9546 7.18213 20.8641 8.3042 20.8641H13.2944C16.2984 20.8641 18.7423 18.4202 18.7423 15.4161C18.7423 12.4121 16.2984 9.9682 13.2944 9.9682Z" fill="#73DA8C" style="fill:#73DA8C;fill:color(display-p3 0.4510 0.8549 0.5490);fill-opacity:1;"/>
<path d="M8.60803 18.8325C8.60803 17.7104 9.5177 16.8008 10.6396 16.8008H8.30518C7.18311 16.8008 6.27344 17.7104 6.27344 18.8325C6.27344 19.9546 7.18311 20.8641 8.30518 20.8641H10.6396C9.5177 20.8643 8.60803 19.9546 8.60803 18.8325Z" fill="#29CE69" style="fill:#29CE69;fill:color(display-p3 0.1608 0.8078 0.4118);fill-opacity:1;"/>
<path d="M14.6713 12.6407C12.4933 10.5608 7.73254 13.4474 5.55414 6.92798C5.38715 7.4502 5.29688 8.00684 5.29688 8.5838C5.29688 11.5876 7.74078 14.0316 10.7448 14.0316H13.2944C14.0579 14.0316 14.679 14.6528 14.679 15.4164C14.679 15.8033 14.5203 16.153 14.2634 16.4044C14.2634 16.4044 16.8723 14.7426 14.6713 12.6407Z" fill="#29CE69" style="fill:#29CE69;fill:color(display-p3 0.1608 0.8078 0.4118);fill-opacity:1;"/>
</g>
<defs>
<clipPath id="clip0_168_7072">
<rect width="24" height="24" fill="white" style="fill:white;fill-opacity:1;"/>
</clipPath>
</defs>
</svg>
