<svg width="26" height="26" viewBox="0 0 26 26" fill="none" xmlns="http://www.w3.org/2000/svg">
<g clip-path="url(#clip0_207_3865)">
<path fill-rule="evenodd" clip-rule="evenodd" d="M10.6641 10.207C10.8672 10.4102 16.0977 15.6914 16.25 15.8438C17.418 13.2031 19.6523 11.4766 22.5977 10.2578L15.7422 3.40234C14.5234 6.34766 12.7969 8.58203 10.1562 9.75C10.3086 9.90234 10.5117 10.0547 10.6641 10.207Z" fill="#71C138" style="fill:#71C138;fill:color(display-p3 0.4431 0.7569 0.2196);fill-opacity:1;"/>
<path fill-rule="evenodd" clip-rule="evenodd" d="M10.6641 10.207C10.8672 10.4102 16.0977 15.6914 16.25 15.8438L16.5547 15.2344C16.4531 15.082 16.3516 14.9805 16.1992 14.8789L11.1211 9.80078C11.0195 9.64844 10.918 9.54688 10.7656 9.44531C10.5625 9.54688 10.3594 9.64844 10.1562 9.75C10.3086 9.90234 10.5117 10.0547 10.6641 10.207ZM21.9375 10.5625C22.1914 10.4609 22.3945 10.3594 22.5977 10.2578L15.7422 3.40234C15.6406 3.60547 15.5391 3.80859 15.4375 4.0625L21.9375 10.5625Z" fill="#66AE32" style="fill:#66AE32;fill:color(display-p3 0.4000 0.6824 0.1961);fill-opacity:1;"/>
<path fill-rule="evenodd" clip-rule="evenodd" d="M10.6636 10.2071L15.7925 15.336C17.5699 17.1134 17.8746 19.754 16.4527 21.1759L14.7769 22.8516C12.898 24.7305 1.26909 13.1016 3.148 11.2227L4.82378 9.54695C6.24565 8.12507 8.88628 8.42976 10.6636 10.2071Z" fill="#7DD63E" style="fill:#7DD63E;fill:color(display-p3 0.4902 0.8392 0.2431);fill-opacity:1;"/>
<path d="M25.3555 8.29449L17.7107 0.649699C16.9676 -0.0933999 15.8347 -0.165297 15.1803 0.489114C14.5259 1.14352 14.5978 2.27643 15.3409 3.01953L22.9857 10.6643C23.7288 11.4074 24.8617 11.4793 25.5161 10.8249C26.1705 10.1705 26.0986 9.03759 25.3555 8.29449Z" fill="#7DD63E" style="fill:#7DD63E;fill:color(display-p3 0.4902 0.8392 0.2431);fill-opacity:1;"/>
<path fill-rule="evenodd" clip-rule="evenodd" d="M8.68359 19.5L0 26L6.5 17.3164L8.68359 19.5Z" fill="#999999" style="fill:#999999;fill:color(display-p3 0.6000 0.6000 0.6000);fill-opacity:1;"/>
<path fill-rule="evenodd" clip-rule="evenodd" d="M8.68359 19.5L8.17578 19.9062C7.82031 19.5508 7.46484 19.2461 7.10938 18.8906C6.75391 18.5352 6.44922 18.2305 6.09375 17.8242L6.5 17.3164L8.68359 19.5Z" fill="#8A8A8A" style="fill:#8A8A8A;fill:color(display-p3 0.5412 0.5412 0.5412);fill-opacity:1;"/>
</g>
<defs>
<clipPath id="clip0_207_3865">
<rect width="26" height="26" fill="white" style="fill:white;fill-opacity:1;"/>
</clipPath>
</defs>
</svg>
