<svg width="14" height="14" viewBox="0 0 14 14" fill="none" xmlns="http://www.w3.org/2000/svg">
<path d="M13.8316 4.00953L9.9279 0.105798C9.78697 -0.0352662 9.55815 -0.0352662 9.41723 0.105798L9.40069 0.122339C9.16132 0.361636 9.02943 0.679953 9.02943 1.01842C9.02943 1.23648 9.08483 1.44573 9.18776 1.63129L5.10317 5.13682C4.79056 4.85743 4.39156 4.70452 3.96894 4.70452C3.51353 4.70452 3.08543 4.88184 2.7635 5.20385L2.73901 5.22833C2.59795 5.36932 2.59795 5.598 2.73901 5.739L5.07767 8.07765L2.79998 10.3553C2.7544 10.4021 1.6763 11.5131 0.967508 12.3972C0.292521 13.2389 0.15904 13.3931 0.152106 13.4011C0.0267876 13.5438 0.0337217 13.759 0.167852 13.8938C0.238132 13.9644 0.330803 14.0001 0.423762 14.0001C0.508488 14.0001 0.59343 13.9704 0.661759 13.9107C0.667754 13.9055 0.818426 13.7746 1.66561 13.0953C2.54956 12.3865 3.66052 11.3083 3.71101 11.2592L5.98502 8.98514L8.19843 11.1986C8.26892 11.2691 8.36138 11.3044 8.45376 11.3044C8.54614 11.3044 8.63867 11.2691 8.70909 11.1986L8.73358 11.1741C9.05558 10.8521 9.2329 10.424 9.2329 9.96863C9.2329 9.54601 9.07992 9.14701 8.80061 8.8344L12.3061 4.74981C12.4917 4.85274 12.7009 4.90814 12.919 4.90814C13.2575 4.90814 13.5758 4.77632 13.8151 4.53688L13.8316 4.52034C13.9727 4.3792 13.9727 4.15052 13.8316 4.00953Z" fill="#838383" style="fill:#838383;fill:color(display-p3 0.5125 0.5125 0.5125);fill-opacity:1;"/>
</svg>
