<svg width="25" height="25" viewBox="0 0 25 25" fill="none" xmlns="http://www.w3.org/2000/svg">
<g clip-path="url(#clip0_380_7487)">
<path d="M12.5 0.71875C10.1699 0.71875 7.89211 1.40971 5.95469 2.70425C4.01728 3.99879 2.50724 5.83877 1.61555 7.99151C0.723855 10.1443 0.490547 12.5131 0.945129 14.7984C1.39971 17.0837 2.52177 19.183 4.1694 20.8306C5.81704 22.4782 7.91626 23.6003 10.2016 24.0549C12.4869 24.5095 14.8558 24.2761 17.0085 23.3845C19.1612 22.4928 21.0012 20.9827 22.2958 19.0453C23.5903 17.1079 24.2813 14.8301 24.2813 12.5C24.278 9.37643 23.0357 6.38174 20.827 4.17304C18.6183 1.96434 15.6236 0.722049 12.5 0.71875ZM12.5 22.4688C10.5284 22.4688 8.60102 21.8841 6.96166 20.7887C5.32231 19.6933 4.04459 18.1364 3.29008 16.3149C2.53557 14.4933 2.33816 12.4889 2.7228 10.5552C3.10745 8.62145 4.05688 6.84518 5.45103 5.45103C6.84519 4.05687 8.62145 3.10744 10.5552 2.7228C12.4889 2.33815 14.4933 2.53556 16.3149 3.29008C18.1364 4.04459 19.6933 5.32231 20.7887 6.96166C21.8841 8.60101 22.4688 10.5284 22.4688 12.5C22.4658 15.143 21.4145 17.6768 19.5457 19.5457C17.6768 21.4145 15.143 22.4658 12.5 22.4688ZM17.9375 12.5C17.9375 12.7404 17.842 12.9709 17.6721 13.1408C17.5021 13.3108 17.2716 13.4062 17.0313 13.4062H13.4063V17.0312C13.4063 17.2716 13.3108 17.5021 13.1408 17.6721C12.9709 17.842 12.7404 17.9375 12.5 17.9375C12.2597 17.9375 12.0291 17.842 11.8592 17.6721C11.6892 17.5021 11.5938 17.2716 11.5938 17.0312V13.4062H7.96876C7.7284 13.4062 7.49789 13.3108 7.32794 13.1408C7.15799 12.9709 7.06251 12.7404 7.06251 12.5C7.06251 12.2596 7.15799 12.0291 7.32794 11.8592C7.49789 11.6892 7.7284 11.5938 7.96876 11.5938H11.5938V7.96875C11.5938 7.7284 11.6892 7.49789 11.8592 7.32793C12.0291 7.15798 12.2597 7.0625 12.5 7.0625C12.7404 7.0625 12.9709 7.15798 13.1408 7.32793C13.3108 7.49789 13.4063 7.7284 13.4063 7.96875V11.5938H17.0313C17.2716 11.5938 17.5021 11.6892 17.6721 11.8592C17.842 12.0291 17.9375 12.2596 17.9375 12.5Z" fill="white" style="fill:white;fill-opacity:1;"/>
</g>
<defs>
<clipPath id="clip0_380_7487">
<rect width="25" height="25" fill="white" style="fill:white;fill-opacity:1;"/>
</clipPath>
</defs>
</svg>
