<svg width="34" height="34" viewBox="0 0 34 34" fill="none" xmlns="http://www.w3.org/2000/svg">
<mask id="mask0_168_7038" style="mask-type:alpha" maskUnits="userSpaceOnUse" x="0" y="0" width="34" height="34">
<path fill-rule="evenodd" clip-rule="evenodd" d="M17 8.5C17.5868 8.5 18.0625 8.9757 18.0625 9.5625V15.9375H24.4375C25.0243 15.9375 25.5 16.4132 25.5 17C25.5 17.5868 25.0243 18.0625 24.4375 18.0625H18.0625V24.4375C18.0625 25.0243 17.5868 25.5 17 25.5C16.4132 25.5 15.9375 25.0243 15.9375 24.4375V18.0625H9.5625C8.9757 18.0625 8.5 17.5868 8.5 17C8.5 16.4132 8.9757 15.9375 9.5625 15.9375H15.9375V9.5625C15.9375 8.9757 16.4132 8.5 17 8.5Z" fill="black" style="fill:black;fill-opacity:1;"/>
</mask>
<g mask="url(#mask0_168_7038)">
<rect width="34" height="34" fill="white" style="fill:white;fill-opacity:1;"/>
</g>
</svg>
