<svg width="36" height="36" viewBox="0 0 36 36" fill="none" xmlns="http://www.w3.org/2000/svg">
<path d="M32.838 14.892L31.2 13.257C30.7994 12.8531 30.5737 12.3079 30.5715 11.739V9.822C30.5699 8.6566 30.1062 7.53941 29.282 6.71549C28.4578 5.89157 27.3404 5.42819 26.175 5.427H24.261C23.9791 5.42774 23.6999 5.37272 23.4394 5.26512C23.1789 5.15751 22.9422 4.99944 22.743 4.8L21.108 3.1635C20.283 2.34058 19.1653 1.87845 18 1.87845C16.8347 1.87845 15.717 2.34058 14.892 3.1635L13.257 4.8C13.0579 4.99971 12.8213 5.15806 12.5608 5.26592C12.3003 5.37379 12.021 5.42904 11.739 5.4285H9.8235C8.6581 5.42969 7.54076 5.89307 6.71655 6.71699C5.89235 7.54091 5.42859 8.6581 5.427 9.8235V11.739C5.42548 12.3073 5.20023 12.8521 4.8 13.2555L3.162 14.892C2.33909 15.717 1.87695 16.8347 1.87695 18C1.87695 19.1653 2.33909 20.283 3.162 21.108L4.8 22.743C5.20059 23.1469 5.42633 23.6921 5.4285 24.261V26.178C5.43009 27.3434 5.89385 28.4606 6.71805 29.2845C7.54226 30.1084 8.65961 30.5718 9.82501 30.573H11.739C12.021 30.5725 12.3003 30.6277 12.5608 30.7356C12.8213 30.8434 13.0579 31.0018 13.257 31.2015L14.892 32.838C15.7168 33.6613 16.8346 34.1237 18 34.1237C19.1654 34.1237 20.2832 33.6613 21.108 32.838L22.743 31.2015C22.9421 31.0018 23.1787 30.8434 23.4392 30.7356C23.6997 30.6277 23.979 30.5725 24.261 30.573H26.1765C27.3419 30.5718 28.4593 30.1084 29.2835 29.2845C30.1077 28.4606 30.5714 27.3434 30.573 26.178V24.261C30.5743 23.6924 30.8002 23.1473 31.2015 22.7445L32.838 21.108C33.6609 20.283 34.1231 19.1653 34.1231 18C34.1231 16.8347 33.6609 15.717 32.838 14.892Z" fill="#FFC545" style="fill:#FFC545;fill:color(display-p3 1.0000 0.7725 0.2706);fill-opacity:1;"/>
<path d="M21.75 24C22.9926 24 24 22.9926 24 21.75C24 20.5074 22.9926 19.5 21.75 19.5C20.5074 19.5 19.5 20.5074 19.5 21.75C19.5 22.9926 20.5074 24 21.75 24Z" fill="white" style="fill:white;fill-opacity:1;"/>
<path d="M14.25 16.5C15.4926 16.5 16.5 15.4926 16.5 14.25C16.5 13.0074 15.4926 12 14.25 12C13.0074 12 12 13.0074 12 14.25C12 15.4926 13.0074 16.5 14.25 16.5Z" fill="white" style="fill:white;fill-opacity:1;"/>
<path d="M13.758 23.3685C13.5356 23.3679 13.3184 23.3015 13.1338 23.1777C12.9491 23.0538 12.8052 22.8781 12.7202 22.6727C12.6352 22.4672 12.6128 22.2412 12.6561 22.0231C12.6993 21.805 12.8061 21.6045 12.963 21.447L21.45 12.9615C21.6647 12.7727 21.9433 12.6728 22.2291 12.682C22.5149 12.6913 22.7865 12.809 22.9886 13.0113C23.1907 13.2136 23.3082 13.4853 23.3172 13.7711C23.3261 14.0569 23.226 14.3354 23.037 14.55L14.55 23.0385C14.3401 23.2491 14.0553 23.3678 13.758 23.3685Z" fill="white" style="fill:white;fill-opacity:1;"/>
</svg>
