<svg width="19" height="20" viewBox="0 0 19 20" fill="none" xmlns="http://www.w3.org/2000/svg">
<path fill-rule="evenodd" clip-rule="evenodd" d="M16 9.5C16 13.366 12.866 16.5 9 16.5C5.13401 16.5 2 13.366 2 9.5C2 5.63401 5.13401 2.5 9 2.5C12.866 2.5 16 5.63401 16 9.5ZM16.0319 15.1177C17.2635 13.578 18 11.625 18 9.5C18 4.52944 13.9706 0.5 9 0.5C4.02944 0.5 0 4.52944 0 9.5C0 14.4706 4.02944 18.5 9 18.5C11.125 18.5 13.078 17.7635 14.6177 16.5319L17.2929 19.2071C17.6834 19.5976 18.3166 19.5976 18.7071 19.2071C19.0976 18.8166 19.0976 18.1834 18.7071 17.7929L16.0319 15.1177Z" fill="#A2A5B1" style="fill:#A2A5B1;fill:color(display-p3 0.6353 0.6471 0.6941);fill-opacity:1;"/>
</svg>
