<svg width="21" height="20" viewBox="0 0 21 20" fill="none" xmlns="http://www.w3.org/2000/svg">
<path d="M2.24849 7.16187C2.36995 7.27966 2.52681 7.33826 2.68367 7.33826C2.84663 7.33826 3.00959 7.27478 3.13228 7.14844L4.46227 5.77774L4.46254 15.7666C4.46254 16.1121 4.74238 16.3916 5.08754 16.3916C5.43269 16.3916 5.71254 16.1121 5.71254 15.7666L5.71227 5.77774L7.04249 7.14844C7.28328 7.39624 7.67878 7.40234 7.92628 7.16187C8.17408 6.92139 8.17988 6.52588 7.93971 6.27808L5.53584 3.80066C5.53565 3.80043 5.53531 3.80039 5.53512 3.80016C5.42148 3.68263 5.26366 3.6084 5.08723 3.6084C4.9108 3.6084 4.75299 3.68263 4.63935 3.80016C4.63916 3.80039 4.63881 3.80043 4.63862 3.80066L2.23506 6.27808C1.99458 6.52588 2.00068 6.92139 2.24849 7.16187Z" fill="#3F79CF" style="fill:#3F79CF;fill:color(display-p3 0.2471 0.4733 0.8125);fill-opacity:1;"/>
<path d="M17.6084 8.07678C17.6084 7.73132 17.3286 7.45178 16.9834 7.45178H10.2012C9.85602 7.45178 9.57617 7.73132 9.57617 8.07678C9.57617 8.42224 9.85602 8.70178 10.2012 8.70178H16.9834C17.3286 8.70178 17.6084 8.42224 17.6084 8.07678Z" fill="#3F79CF" style="fill:#3F79CF;fill:color(display-p3 0.2471 0.4733 0.8125);fill-opacity:1;"/>
<path d="M15.6583 11.9208C15.6583 11.5753 15.3785 11.2958 15.0333 11.2958H10.2012C9.85602 11.2958 9.57617 11.5753 9.57617 11.9208C9.57617 12.2662 9.85602 12.5458 10.2012 12.5458H15.0333C15.3785 12.5458 15.6583 12.2662 15.6583 11.9208Z" fill="#3F79CF" style="fill:#3F79CF;fill:color(display-p3 0.2471 0.4733 0.8125);fill-opacity:1;"/>
<path d="M10.2012 15.1416C9.85602 15.1416 9.57617 15.4211 9.57617 15.7666C9.57617 16.1121 9.85602 16.3916 10.2012 16.3916H13.0836C13.4287 16.3916 13.7086 16.1121 13.7086 15.7666C13.7086 15.4211 13.4287 15.1416 13.0836 15.1416H10.2012Z" fill="#3F79CF" style="fill:#3F79CF;fill:color(display-p3 0.2471 0.4733 0.8125);fill-opacity:1;"/>
<path d="M18.9335 3.6084H10.2012C9.85602 3.6084 9.57617 3.88794 9.57617 4.2334C9.57617 4.57886 9.85602 4.8584 10.2012 4.8584H18.9335C19.2786 4.8584 19.5585 4.57886 19.5585 4.2334C19.5585 3.88794 19.2786 3.6084 18.9335 3.6084Z" fill="#3F79CF" style="fill:#3F79CF;fill:color(display-p3 0.2471 0.4733 0.8125);fill-opacity:1;"/>
</svg>
