<svg width="24" height="24" viewBox="0 0 24 24" fill="none" xmlns="http://www.w3.org/2000/svg">
<g clip-path="url(#clip0_206_3769)">
<path d="M5.19102 13.038C5.00422 12.9605 4.78911 13.0031 4.646 13.146L3.00003 14.793L1.35402 13.146C1.15902 12.9505 0.842423 12.9501 0.646907 13.1451C0.552641 13.2392 0.499766 13.3669 0.500001 13.5V23.5C0.500001 23.7762 0.723876 24 1.00002 24H5C5.27614 24 5.50002 23.7762 5.50002 23.5V13.5C5.50002 13.2977 5.378 13.1153 5.19102 13.038Z" fill="#64B5F6" style="fill:#64B5F6;fill:color(display-p3 0.3922 0.7098 0.9647);fill-opacity:1;"/>
<path d="M9.35403 9.14602C9.1588 8.95084 8.8423 8.95084 8.64702 9.14602L6.647 11.146C6.55292 11.2398 6.50005 11.3672 6.5 11.5V23.5C6.5 23.7762 6.72387 24.0001 7.00002 24.0001H11C11.2761 24.0001 11.5 23.7762 11.5 23.5V11.5C11.5002 11.3673 11.4477 11.24 11.354 11.146L9.35403 9.14602Z" fill="#42A5F5" style="fill:#42A5F5;fill:color(display-p3 0.2588 0.6471 0.9608);fill-opacity:1;"/>
<path d="M15.354 7.14602C15.1588 6.95084 14.8423 6.95084 14.647 7.14602L12.647 9.14604C12.5529 9.23984 12.5 9.3672 12.5 9.50004V23.5001C12.5 23.7762 12.7239 24.0001 13 24.0001H17C17.2761 24.0001 17.5 23.7762 17.5 23.5001V9.50004C17.5003 9.36734 17.4477 9.23998 17.354 9.14604L15.354 7.14602Z" fill="#2196F3" style="fill:#2196F3;fill:color(display-p3 0.1294 0.5882 0.9529);fill-opacity:1;"/>
<path d="M23.354 6.146L22.3541 5.14602C22.2601 5.05231 22.1328 4.99977 22.0001 5H21C20.8673 4.99977 20.74 5.05227 20.646 5.14602L18.646 7.14603C18.5523 7.23997 18.4998 7.36733 18.5 7.50003V23.5C18.5 23.7762 18.7239 24 19 24H23C23.2761 24 23.5 23.7762 23.5 23.5V6.5C23.5003 6.3673 23.4478 6.23994 23.354 6.146Z" fill="#1976D2" style="fill:#1976D2;fill:color(display-p3 0.0980 0.4627 0.8235);fill-opacity:1;"/>
<path d="M22.9992 8.90386e-07H19.9992C19.7231 -0.000514735 19.4989 0.222985 19.4983 0.499126C19.4981 0.632251 19.551 0.759985 19.6452 0.854017L20.7922 2.00002L16.9992 5.793L15.3532 4.146C15.158 3.95081 14.8415 3.95081 14.6462 4.146L10.9992 7.79302L9.35319 6.14602C9.15795 5.95083 8.84145 5.95083 8.64617 6.14602L2.99923 11.793L1.35322 10.146C1.15461 9.95414 0.838062 9.95967 0.646203 10.1583C0.459078 10.3521 0.459078 10.6592 0.646203 10.853L2.64622 12.853C2.84145 13.0482 3.15795 13.0482 3.35323 12.853L8.99923 7.20698L10.6453 8.853C10.8405 9.04819 11.157 9.04819 11.3523 8.853L14.9992 5.20702L16.6452 6.85303C16.8405 7.04822 17.157 7.04822 17.3523 6.85303L21.4992 2.70703L22.6452 3.85303C22.739 3.94711 22.8664 3.99998 22.9992 4.00003C23.0648 4.00017 23.1297 3.98724 23.1903 3.96202C23.3772 3.88472 23.4992 3.70238 23.4993 3.50002V0.500017C23.4992 0.223876 23.2754 8.90386e-07 22.9992 8.90386e-07Z" fill="#455A64" style="fill:#455A64;fill:color(display-p3 0.2706 0.3529 0.3922);fill-opacity:1;"/>
</g>
<defs>
<clipPath id="clip0_206_3769">
<rect width="24" height="24" fill="white" style="fill:white;fill-opacity:1;"/>
</clipPath>
</defs>
</svg>
