<svg width="91" height="91" viewBox="0 0 91 91" fill="none" xmlns="http://www.w3.org/2000/svg">
<path d="M63.3478 36.8061C64.8285 35.3254 64.8285 32.9246 63.3478 31.4439C61.8671 29.9632 59.4662 29.9632 57.9855 31.4439L41.7083 47.7211L34.9103 40.923C33.4296 39.4423 31.0287 39.4423 29.548 40.923C28.0673 42.4037 28.0673 44.8045 29.548 46.2852L39.0273 55.7643C40.508 57.245 42.9089 57.245 44.3896 55.7643L63.3478 36.8061Z" fill="#00A035" style="fill:#00A035;fill:color(display-p3 0.0000 0.6292 0.2086);fill-opacity:1;"/>
<path fill-rule="evenodd" clip-rule="evenodd" d="M0 45.5C0 82.9692 8.03075 91 45.5 91C82.9692 91 91 82.9692 91 45.5C91 8.03075 82.9692 0 45.5 0C8.03075 0 0 8.03075 0 45.5ZM7.58339 45.5C7.58339 54.6944 8.08603 61.5649 9.24308 66.7716C10.3811 71.892 12.0488 74.9264 14.0613 76.9385C16.0738 78.9512 19.108 80.6191 24.2286 81.7569C29.4351 82.9142 36.3058 83.4166 45.5 83.4166C54.6944 83.4166 61.5649 82.9142 66.7716 81.7569C71.892 80.6191 74.9264 78.951 76.9385 76.9385C78.9512 74.9262 80.6191 71.8918 81.7569 66.7716C82.9142 61.5649 83.4166 54.6944 83.4166 45.5C83.4166 36.3058 82.9142 29.4349 81.7569 24.2286C80.6191 19.1082 78.951 16.0739 76.9385 14.0613C74.9262 12.0488 71.8918 10.3809 66.7716 9.24308C61.5649 8.08603 54.6944 7.58339 45.5 7.58339C36.3058 7.58339 29.4349 8.08603 24.2286 9.24308C19.1082 10.3811 16.0739 12.0488 14.0613 14.0613C12.0486 16.0738 10.3809 19.108 9.24308 24.2286C8.08585 29.4349 7.58339 36.3058 7.58339 45.5Z" fill="#00A035" style="fill:#00A035;fill:color(display-p3 0.0000 0.6292 0.2086);fill-opacity:1;"/>
</svg>
