<svg width="24" height="24" viewBox="0 0 24 24" fill="none" xmlns="http://www.w3.org/2000/svg">
<path d="M17.6099 5.78009C17.6099 7.36853 17.0403 8.74347 15.9166 9.86737C14.7928 10.9911 13.4177 11.5607 11.8293 11.5607H11.8265C10.2401 11.5602 8.86591 10.9905 7.74219 9.86737C6.61829 8.74347 6.04883 7.36853 6.04883 5.78009C6.04883 4.1922 6.61829 2.81708 7.74219 1.69336C8.86536 0.570007 10.2396 0.000549319 11.8265 0H11.8293C13.4172 0 14.7923 0.569641 15.9166 1.69336C17.0403 2.81708 17.6099 4.1922 17.6099 5.78009Z" fill="#FFBB85" style="fill:#FFBB85;fill:color(display-p3 1.0000 0.7333 0.5216);fill-opacity:1;"/>
<path d="M21.9922 19.8724C21.9922 21.1256 21.5936 22.1402 20.8085 22.8875C20.0325 23.6259 19.0062 24 17.7583 24H6.20215C4.95428 24 3.92798 23.6259 3.15253 22.8875C2.36682 22.1396 1.96875 21.1252 1.96875 19.8724C1.96875 19.3905 1.98468 18.9137 2.01654 18.4552C2.04895 17.9865 2.1145 17.4763 2.21118 16.9382C2.30859 16.3956 2.43384 15.8828 2.5838 15.414C2.73944 14.9288 2.95001 14.4501 3.21057 13.9916C3.4812 13.5157 3.79907 13.1012 4.1554 12.7599C4.52893 12.4026 4.9856 12.1157 5.51349 11.9066C6.03955 11.6986 6.62274 11.5931 7.24677 11.5931C7.49158 11.5931 7.7287 11.6933 8.18573 11.991C8.47174 12.1776 8.80133 12.39 9.16516 12.6226C9.47937 12.8229 9.90491 13.0107 10.431 13.1805C10.8933 13.3301 11.3626 13.4136 11.8262 13.428C11.8773 13.4299 11.9284 13.4308 11.9795 13.4308C12.4944 13.4308 13.0151 13.3464 13.5286 13.1805C14.0546 13.0107 14.4807 12.8229 14.7947 12.6226C15.1624 12.3876 15.492 12.1754 15.7738 11.9916C16.2312 11.6933 16.468 11.5931 16.7133 11.5931C17.3368 11.5931 17.92 11.6986 18.4464 11.9066C18.9743 12.1157 19.431 12.4032 19.8041 12.7599C20.161 13.1012 20.4789 13.5157 20.7493 13.9916C21.0101 14.4505 21.221 14.9288 21.3761 15.4135C21.5262 15.8828 21.6519 16.3956 21.7493 16.9385C21.8454 17.4772 21.9111 17.9874 21.9434 18.4548C21.9758 18.9119 21.9917 19.3887 21.9922 19.8724Z" fill="#6AA9FF" style="fill:#6AA9FF;fill:color(display-p3 0.4157 0.6627 1.0000);fill-opacity:1;"/>
<path d="M11.8289 11.5607H11.8262V0H11.8289C13.4168 0 14.7919 0.569641 15.9162 1.69336C17.0399 2.81708 17.6096 4.1922 17.6096 5.78009C17.6096 7.36853 17.0399 8.74347 15.9162 9.86737C14.7925 10.9911 13.4174 11.5607 11.8289 11.5607Z" fill="#F5A86C" style="fill:#F5A86C;fill:color(display-p3 0.9608 0.6588 0.4235);fill-opacity:1;"/>
<path d="M21.9922 19.8724C21.9922 21.1256 21.5936 22.1402 20.8084 22.8875C20.0324 23.6259 19.0061 24 17.7582 24H11.8262V13.428C11.8773 13.4299 11.9283 13.4308 11.9794 13.4308C12.4943 13.4308 13.0151 13.3464 13.5285 13.1805C14.0546 13.0107 14.4807 12.8229 14.7947 12.6226C15.1624 12.3876 15.4919 12.1754 15.7737 11.9916C16.2311 11.6933 16.4679 11.5931 16.7133 11.5931C17.3367 11.5931 17.9199 11.6986 18.4464 11.9066C18.9742 12.1157 19.4309 12.4032 19.8041 12.7599C20.1609 13.1012 20.4788 13.5157 20.7493 13.9916C21.01 14.4505 21.2209 14.9288 21.376 15.4135C21.5262 15.8828 21.6518 16.3956 21.7492 16.9385C21.8453 17.4772 21.9111 17.9874 21.9433 18.4548C21.9757 18.9119 21.9916 19.3887 21.9922 19.8724Z" fill="#2682FF" style="fill:#2682FF;fill:color(display-p3 0.1490 0.5098 1.0000);fill-opacity:1;"/>
</svg>
