<svg width="22" height="18" viewBox="0 0 22 18" fill="none" xmlns="http://www.w3.org/2000/svg">
<path d="M21.0097 3.98097C20.785 3.8472 20.529 3.77518 20.2675 3.77219C20.006 3.76921 19.7484 3.83537 19.5207 3.96397L11.6357 8.34497C11.5188 8.4098 11.4214 8.50473 11.3536 8.61991C11.2858 8.73508 11.25 8.86631 11.25 8.99997C11.25 9.13363 11.2858 9.26486 11.3536 9.38004C11.4214 9.49521 11.5188 9.59014 11.6357 9.65497L19.5207 14.036C19.749 14.1629 20.0064 14.228 20.2676 14.2249C20.5287 14.2218 20.7846 14.1506 21.0097 14.0182C21.2349 13.8859 21.4216 13.6971 21.5514 13.4704C21.6812 13.2438 21.7496 12.9872 21.7497 12.726V5.27397C21.7511 5.01239 21.6834 4.75507 21.5535 4.52804C21.4235 4.301 21.236 4.11229 21.0097 3.98097Z" fill="#F26674" style="fill:#F26674;fill:color(display-p3 0.9490 0.4000 0.4549);fill-opacity:1;"/>
<path d="M13.5 0.25H3.25C1.59315 0.25 0.25 1.59315 0.25 3.25V14.75C0.25 16.4069 1.59315 17.75 3.25 17.75H13.5C15.1569 17.75 16.5 16.4069 16.5 14.75V3.25C16.5 1.59315 15.1569 0.25 13.5 0.25Z" fill="#FF8086" style="fill:#FF8086;fill:color(display-p3 1.0000 0.5020 0.5255);fill-opacity:1;"/>
</svg>
