<svg width="24" height="24" viewBox="0 0 24 24" fill="none" xmlns="http://www.w3.org/2000/svg">
<path d="M22.4495 15.849L5.94355 18.7594C4.92373 18.9392 3.95127 18.2583 3.77145 17.2385L1.95458 6.9346C1.77477 5.91479 2.45572 4.94232 3.47548 4.76251L19.9815 1.85204C21.0013 1.67223 21.9738 2.35318 22.1536 3.37295L23.9705 13.6769C24.1503 14.6966 23.4694 15.6691 22.4495 15.849Z" fill="#3555A2" style="fill:#3555A2;fill:color(display-p3 0.2078 0.3333 0.6353);fill-opacity:1;"/>
<path d="M19.9815 1.85204L11.7285 3.30727L14.1965 17.3042L22.4495 15.849C23.4693 15.6692 24.1503 14.6967 23.9704 13.6769L22.1536 3.37299C21.9738 2.35318 21.0013 1.67223 19.9815 1.85204Z" fill="#1B3555" style="fill:#1B3555;fill:color(display-p3 0.1059 0.2078 0.3333);fill-opacity:1;"/>
<path d="M18.2812 22.1767H1.875C0.839484 22.1767 0 21.3372 0 20.3017V10.0962C0 9.06068 0.839484 8.22119 1.875 8.22119H18.2812C19.3168 8.22119 20.1562 9.06068 20.1562 10.0962V20.3017C20.1562 21.3372 19.3168 22.1767 18.2812 22.1767Z" fill="#53D8E3" style="fill:#53D8E3;fill:color(display-p3 0.3255 0.8471 0.8902);fill-opacity:1;"/>
<path d="M18.2812 8.22119H10.0781V22.1767H18.2812C19.3168 22.1767 20.1562 21.3372 20.1562 20.3017V10.0962C20.1562 9.06068 19.3168 8.22119 18.2812 8.22119Z" fill="#18A8C9" style="fill:#18A8C9;fill:color(display-p3 0.0941 0.6588 0.7882);fill-opacity:1;"/>
<path d="M0 11.4111H20.1562V14.601H0V11.4111Z" fill="#ECF6FD" style="fill:#ECF6FD;fill:color(display-p3 0.9255 0.9647 0.9922);fill-opacity:1;"/>
<path d="M5.58242 19.0815H2.39258C2.00427 19.0815 1.68945 19.3964 1.68945 19.7847C1.68945 20.173 2.00427 20.4878 2.39258 20.4878H5.58242C5.97074 20.4878 6.28555 20.173 6.28555 19.7847C6.28555 19.3964 5.97074 19.0815 5.58242 19.0815Z" fill="#EAF6FF" style="fill:#EAF6FF;fill:color(display-p3 0.9176 0.9647 1.0000);fill-opacity:1;"/>
<path d="M10.0781 11.4111H20.1562V14.601H10.0781V11.4111Z" fill="#D6E8FE" style="fill:#D6E8FE;fill:color(display-p3 0.8392 0.9098 0.9961);fill-opacity:1;"/>
</svg>
