<svg width="24" height="24" viewBox="0 0 24 24" fill="none" xmlns="http://www.w3.org/2000/svg">
<g clip-path="url(#clip0_174_3249)">
<path d="M17 24H3C1.346 24 0 22.654 0 21V7C0 5.346 1.346 4 3 4H11C11.553 4 12 4.448 12 5C12 5.552 11.553 6 11 6H3C2.448 6 2 6.449 2 7V21C2 21.551 2.448 22 3 22H17C17.552 22 18 21.551 18 21V13C18 12.448 18.447 12 19 12C19.553 12 20 12.448 20 13V21C20 22.654 18.654 24 17 24Z" fill="#607D8B" style="fill:#607D8B;fill:color(display-p3 0.3765 0.4902 0.5451);fill-opacity:1;"/>
<path d="M17.2873 3.17676L9.37533 11.0888C9.30533 11.1588 9.25833 11.2478 9.23833 11.3438L8.53133 14.8798C8.49833 15.0438 8.54933 15.2138 8.66833 15.3318C8.76333 15.4268 8.89133 15.4778 9.02233 15.4778L9.12033 15.4678L12.6553 14.7608C12.7533 14.7418 12.8413 14.6938 12.9113 14.6238L20.8233 6.71176L17.2873 3.17676Z" fill="#42A5F5" style="fill:#42A5F5;fill:color(display-p3 0.2588 0.6471 0.9608);fill-opacity:1;"/>
<path d="M23.2686 0.732227C22.2936 -0.242773 20.7076 -0.242773 19.7336 0.732227L18.3496 2.11623L21.8846 5.65123L23.2686 4.26723C23.7406 3.79623 24.0006 3.16823 24.0006 2.50023C24.0006 1.83223 23.7406 1.20423 23.2686 0.732227Z" fill="#42A5F5" style="fill:#42A5F5;fill:color(display-p3 0.2588 0.6471 0.9608);fill-opacity:1;"/>
<path d="M19.0009 12C18.4479 12 18.0009 12.448 18.0009 13V21C18.0009 21.551 17.5529 22 17.0009 22H3.00086C2.72486 22 2.47486 21.888 2.29386 21.707L0.880859 23.12C1.42386 23.664 2.17386 24 3.00086 24H17.0009C18.6549 24 20.0009 22.654 20.0009 21V13C20.0009 12.447 19.5539 12 19.0009 12Z" fill="#546D79" style="fill:#546D79;fill:color(display-p3 0.3294 0.4275 0.4745);fill-opacity:1;"/>
<path d="M19.0569 4.94385L8.66992 15.3308C8.76492 15.4258 8.89292 15.4768 9.02392 15.4768L9.12192 15.4668L12.6569 14.7598C12.7549 14.7408 12.8429 14.6928 12.9129 14.6228L20.8249 6.71085L19.0569 4.94385Z" fill="#3990D5" style="fill:#3990D5;fill:color(display-p3 0.2235 0.5647 0.8353);fill-opacity:1;"/>
<path d="M23.2682 0.731934L20.1172 3.88293L21.8852 5.65093L23.2692 4.26693C23.7402 3.79593 24.0002 3.16793 24.0002 2.49993C24.0002 1.83193 23.7402 1.20393 23.2682 0.731934Z" fill="#3990D5" style="fill:#3990D5;fill:color(display-p3 0.2235 0.5647 0.8353);fill-opacity:1;"/>
</g>
<defs>
<clipPath id="clip0_174_3249">
<rect width="24" height="24" fill="white" style="fill:white;fill-opacity:1;"/>
</clipPath>
</defs>
</svg>
