<svg width="24" height="24" viewBox="0 0 24 24" fill="none" xmlns="http://www.w3.org/2000/svg">
<g clip-path="url(#clip0_168_8445)">
<path d="M23.4201 19.1C22.9453 19.67 22.2419 19.9997 21.5001 20H2.50007C1.75823 19.9997 1.05483 19.67 0.580078 19.1L9.75008 11.46L10.7001 12.11C11.4827 12.65 12.5175 12.65 13.3001 12.11L14.2501 11.46L23.4201 19.1Z" fill="#1E88E5" style="fill:#1E88E5;fill:color(display-p3 0.1176 0.5333 0.8980);fill-opacity:1;"/>
<path d="M23.5604 5.09006L14.2504 11.46L13.3004 12.1101C12.5178 12.65 11.4829 12.65 10.7004 12.1101L9.75035 11.46L0.44043 5.08003C0.908898 4.40452 1.67835 4.00111 2.50044 4.00003H21.5004C22.3262 3.99568 23.0994 4.4048 23.5604 5.09006Z" fill="#64B5F6" style="fill:#64B5F6;fill:color(display-p3 0.3922 0.7098 0.9647);fill-opacity:1;"/>
<path d="M9.75003 11.46L0.580028 19.1C0.2047 18.6514 -0.000658686 18.085 4.44377e-05 17.5001V6.50006C-0.00300243 5.99273 0.1507 5.4968 0.440059 5.08008L9.75003 11.46Z" fill="#2196F3" style="fill:#2196F3;fill:color(display-p3 0.1294 0.5882 0.9529);fill-opacity:1;"/>
<path d="M24 6.50009V17.5001C24.0006 18.085 23.7953 18.6515 23.42 19.1001L14.25 11.4601L23.56 5.09009C23.8479 5.50381 24.0015 5.99604 24 6.50009Z" fill="#2196F3" style="fill:#2196F3;fill:color(display-p3 0.1294 0.5882 0.9529);fill-opacity:1;"/>
</g>
<defs>
<clipPath id="clip0_168_8445">
<rect width="24" height="24" fill="white" style="fill:white;fill-opacity:1;"/>
</clipPath>
</defs>
</svg>
