<svg width="24" height="24" viewBox="0 0 24 24" fill="none" xmlns="http://www.w3.org/2000/svg">
<path d="M12.0006 5.50244C10.853 5.50247 9.73031 5.83735 8.7702 6.46604C7.81008 7.09472 7.05426 7.98989 6.59541 9.0418C6.13655 10.0937 5.99459 11.2567 6.18693 12.3881C6.37928 13.5195 6.89756 14.5702 7.67825 15.4113L7.06827 17.687C7.0322 17.8214 7.03679 17.9634 7.08146 18.0951C7.12613 18.2269 7.20886 18.3424 7.3192 18.4271C7.42953 18.5118 7.56251 18.5619 7.70131 18.571C7.84011 18.5801 7.9785 18.5478 8.09895 18.4782L10.4854 17.1001C11.2963 17.3157 12.1438 17.3557 12.9714 17.2176C13.799 17.0795 14.5876 16.7664 15.2845 16.2992C15.9814 15.8321 16.5707 15.2216 17.0129 14.5085C17.4551 13.7955 17.74 12.9963 17.8487 12.1643C17.9574 11.3323 17.8873 10.4868 17.6432 9.68405C17.399 8.88133 16.9864 8.13994 16.4329 7.50939C15.8794 6.87884 15.1977 6.37365 14.4334 6.02756C13.669 5.68147 12.8397 5.50245 12.0006 5.50244Z" fill="#2EC4B6" style="fill:#2EC4B6;fill:color(display-p3 0.1804 0.7686 0.7137);fill-opacity:1;"/>
<path d="M12 5.50244V17.2966C13.564 17.2966 15.064 16.6753 16.1699 15.5694C17.2758 14.4635 17.8971 12.9635 17.8971 11.3995C17.8971 9.83552 17.2758 8.33558 16.1699 7.22966C15.064 6.12374 13.564 5.50244 12 5.50244Z" fill="#2AB5A4" style="fill:#2AB5A4;fill:color(display-p3 0.1647 0.7098 0.6431);fill-opacity:1;"/>
<path d="M23.6156 11.9003C23.6232 11.6133 23.6311 11.3166 23.618 11.0058C23.5791 10.1412 23.207 9.3251 22.5798 8.72862C21.9526 8.13214 21.1189 7.80153 20.2533 7.80607C18.8631 4.6255 15.6871 2.39697 11.9999 2.39697C8.31276 2.39697 5.13684 4.6255 3.74672 7.80607C2.88093 7.80142 2.04697 8.13214 1.41968 8.72889C0.792397 9.32565 0.420505 10.1421 0.381982 11.007C0.368904 11.3164 0.376826 11.6133 0.384466 11.9003C0.392576 12.205 0.400966 12.5201 0.385966 12.8734C0.349238 13.7595 0.665216 14.624 1.26468 15.2776C1.86415 15.9312 2.69823 16.3206 3.5842 16.3604C3.63323 16.3625 3.68214 16.3635 3.73092 16.3636C4.15458 16.3638 4.57438 16.2831 4.96776 16.1259C5.06775 16.0947 5.15951 16.0416 5.23633 15.9704C5.31315 15.8992 5.3731 15.8117 5.4118 15.7144C5.45049 15.6171 5.46695 15.5123 5.45998 15.4078C5.45301 15.3033 5.42278 15.2017 5.3715 15.1104C4.73678 13.9765 4.40361 12.6988 4.40386 11.3994C4.40386 7.21089 7.81167 3.80327 11.9999 3.80327C16.1882 3.80327 19.596 7.21108 19.596 11.3994C19.6013 13.1723 18.9841 14.8909 17.852 16.2554C16.72 17.6199 15.145 18.5438 13.4015 18.866C13.2179 18.4503 12.8948 18.1118 12.4882 17.9091C12.0815 17.7063 11.6167 17.652 11.1742 17.7555C10.7318 17.8591 10.3394 18.114 10.0649 18.4761C9.79039 18.8383 9.65106 19.285 9.67098 19.739C9.69089 20.193 9.86879 20.6257 10.1739 20.9625C10.4791 21.2992 10.8923 21.5188 11.3421 21.5832C11.792 21.6476 12.2502 21.5528 12.6376 21.3152C13.0249 21.0776 13.3171 20.7122 13.4636 20.282C14.7021 20.0772 15.8841 19.6161 16.9341 18.9281C17.984 18.2401 18.8787 17.3405 19.5609 16.2868C19.7936 16.3376 20.031 16.3634 20.2692 16.3635C20.3181 16.3635 20.3671 16.3625 20.4162 16.3604C21.302 16.3204 22.1359 15.9311 22.7353 15.2775C23.3346 14.624 23.6505 13.7596 23.6139 12.8737C23.599 12.5202 23.6073 12.2051 23.6156 11.9003Z" fill="#2EA8E6" style="fill:#2EA8E6;fill:color(display-p3 0.1804 0.6588 0.9020);fill-opacity:1;"/>
<path d="M23.6163 11.9001C23.624 11.6132 23.6319 11.3165 23.6188 11.0057C23.579 10.1197 23.1896 9.28567 22.5359 8.68629C21.8823 8.08691 21.0176 7.77111 20.1315 7.80809C19.9783 7.81506 19.8257 7.83229 19.6747 7.85966C19.5736 7.87763 19.4777 7.91752 19.3937 7.97651C19.3097 8.03551 19.2396 8.11219 19.1884 8.20116C19.1372 8.29013 19.1061 8.38923 19.0973 8.49151C19.0885 8.59378 19.1021 8.69675 19.1374 8.79317C19.5117 9.82087 19.6601 10.9172 19.5723 12.0074C19.4845 13.0977 19.1627 14.1562 18.6288 15.1108C18.5776 15.2021 18.5475 15.3037 18.5406 15.4081C18.5337 15.5126 18.5502 15.6173 18.5889 15.7145C18.6276 15.8118 18.6876 15.8992 18.7644 15.9703C18.8412 16.0415 18.9329 16.0946 19.0328 16.1257C19.4263 16.283 19.8462 16.3637 20.2699 16.3634C20.3188 16.3634 20.3678 16.3623 20.417 16.3603C21.3028 16.3203 22.1367 15.9309 22.736 15.2774C23.3354 14.6239 23.6513 13.7595 23.6146 12.8735C23.5997 12.5201 23.6081 12.2049 23.6163 11.9001Z" fill="#176F93" style="fill:#176F93;fill:color(display-p3 0.0902 0.4353 0.5765);fill-opacity:1;"/>
<path d="M19.1428 8.81388C19.1405 8.80704 19.139 8.79982 19.1365 8.79311C19.1013 8.69669 19.0876 8.59372 19.0964 8.49145C19.1053 8.38917 19.1364 8.29007 19.1876 8.2011C19.2388 8.11213 19.3089 8.03545 19.3929 7.97646C19.4769 7.91746 19.5728 7.87757 19.6739 7.8596C19.8248 7.83223 19.9774 7.815 20.1307 7.80803C20.1718 7.80625 20.2125 7.80616 20.2532 7.80588C18.8631 4.6255 15.6872 2.39702 12 2.39697V3.80322C15.2812 3.80327 18.0828 5.89446 19.1428 8.81388Z" fill="#1794C6" style="fill:#1794C6;fill:color(display-p3 0.0902 0.5804 0.7765);fill-opacity:1;"/>
<path d="M5.3715 15.1104C4.83771 14.1558 4.51601 13.0974 4.42833 12.0072C4.34065 10.917 4.48905 9.82075 4.86342 8.79313C4.89864 8.69671 4.91232 8.59374 4.9035 8.49147C4.89468 8.38919 4.86357 8.29009 4.81236 8.20112C4.76115 8.11215 4.69108 8.03547 4.60708 7.97647C4.52307 7.91748 4.42716 7.87759 4.32609 7.85962C4.17462 7.83219 4.02148 7.81496 3.8677 7.80805C2.98159 7.77132 2.11707 8.08744 1.46366 8.6871C0.810247 9.28676 0.421263 10.121 0.381982 11.007C0.368904 11.3164 0.376826 11.6134 0.384466 11.9003C0.392576 12.205 0.400966 12.5202 0.385966 12.8734C0.349238 13.7595 0.665216 14.6241 1.26468 15.2777C1.86415 15.9312 2.69823 16.3206 3.5842 16.3604C3.63323 16.3625 3.68214 16.3636 3.73092 16.3636C4.15458 16.3638 4.57438 16.2832 4.96776 16.1259C5.06775 16.0947 5.15951 16.0416 5.23633 15.9704C5.31315 15.8992 5.3731 15.8117 5.4118 15.7144C5.45049 15.6171 5.46695 15.5123 5.45998 15.4078C5.45301 15.3033 5.42278 15.2017 5.3715 15.1104Z" fill="#176F93" style="fill:#176F93;fill:color(display-p3 0.0902 0.4353 0.5765);fill-opacity:1;"/>
<path d="M4.4044 11.3994C4.40337 10.5104 4.55887 9.62819 4.86377 8.79313C4.89899 8.69671 4.91268 8.59374 4.90386 8.49147C4.89504 8.38919 4.86393 8.29009 4.81272 8.20112C4.76151 8.11215 4.69144 8.03548 4.60743 7.97648C4.52342 7.91748 4.42751 7.87759 4.32644 7.85962C4.17497 7.83219 4.02183 7.81497 3.86805 7.80806C3.67755 7.80016 3.48672 7.80851 3.29763 7.83304C2.81633 8.55921 2.54688 9.40512 2.51951 10.2759C2.50493 10.6736 2.51374 11.0547 2.52227 11.4233C2.53132 11.8147 2.54069 12.2195 2.52396 12.6732C2.4686 14.1717 3.09007 15.5266 4.07533 16.3453C4.38171 16.3138 4.68223 16.2399 4.9683 16.1258C5.06829 16.0946 5.16005 16.0415 5.23687 15.9703C5.31369 15.8991 5.37364 15.8116 5.41234 15.7143C5.45103 15.617 5.46749 15.5122 5.46052 15.4077C5.45355 15.3032 5.42332 15.2016 5.37204 15.1103C4.73735 13.9765 4.40418 12.6988 4.4044 11.3994Z" fill="#0D647F" style="fill:#0D647F;fill:color(display-p3 0.0510 0.3922 0.4980);fill-opacity:1;"/>
<path d="M19.5964 11.3994C19.5974 10.5104 19.4419 9.62819 19.137 8.79314C19.1018 8.69671 19.0881 8.59375 19.0969 8.49147C19.1057 8.38919 19.1368 8.29009 19.1881 8.20112C19.2393 8.11215 19.3093 8.03548 19.3933 7.97648C19.4773 7.91748 19.5733 7.87759 19.6743 7.85962C19.8258 7.83219 19.979 7.81497 20.1328 7.80806C20.3233 7.80016 20.5141 7.80851 20.7031 7.83304C21.1844 8.55921 21.4539 9.40512 21.4813 10.2759C21.4958 10.6736 21.487 11.0547 21.4785 11.4233C21.4695 11.8147 21.4601 12.2195 21.4768 12.6732C21.5325 14.1715 20.9111 15.5264 19.9259 16.3453C19.6195 16.3137 19.3189 16.2399 19.0328 16.1257C18.9329 16.0946 18.8411 16.0414 18.7643 15.9702C18.6875 15.8991 18.6275 15.8116 18.5888 15.7143C18.5501 15.6169 18.5336 15.5122 18.5406 15.4077C18.5476 15.3032 18.5778 15.2016 18.6291 15.1102C19.2637 13.9764 19.5967 12.6987 19.5964 11.3994Z" fill="#0D647F" style="fill:#0D647F;fill:color(display-p3 0.0510 0.3922 0.4980);fill-opacity:1;"/>
<path d="M9.65693 12.1025C9.47045 12.1027 9.29153 12.0288 9.15955 11.8971C9.02756 11.7653 8.95331 11.5866 8.95313 11.4001C8.95295 11.2136 9.02685 11.0347 9.15859 10.9027C9.29032 10.7707 9.46909 10.6965 9.65557 10.6963H9.65693C9.84341 10.6963 10.0223 10.7704 10.1541 10.9022C10.286 11.0341 10.3601 11.2129 10.3601 11.3994C10.3601 11.5859 10.286 11.7647 10.1541 11.8966C10.0223 12.0285 9.84341 12.1025 9.65693 12.1025Z" fill="#E6E9F2" style="fill:#E6E9F2;fill:color(display-p3 0.9020 0.9137 0.9490);fill-opacity:1;"/>
<path d="M12 12.1023C11.9768 12.1023 11.9537 12.1012 11.9306 12.0989C11.9078 12.0967 11.8851 12.0933 11.8627 12.0887C11.8402 12.084 11.8177 12.0784 11.7956 12.0718C11.7737 12.0651 11.7521 12.0573 11.7309 12.0484C11.7096 12.0398 11.6888 12.0301 11.6686 12.0193C11.6484 12.0085 11.6288 11.9963 11.6095 11.9836C11.5904 11.971 11.572 11.9574 11.5542 11.9429C11.5364 11.9284 11.5191 11.9124 11.5027 11.8965C11.4863 11.8806 11.4708 11.8627 11.4563 11.8449C11.4417 11.8272 11.4281 11.8087 11.4155 11.7896C11.4028 11.7704 11.3906 11.7507 11.3798 11.7305C11.3691 11.7104 11.3597 11.6893 11.3508 11.6682C11.3419 11.647 11.334 11.6255 11.3273 11.6035C11.3208 11.5814 11.3152 11.5589 11.3105 11.5364C11.3058 11.5139 11.3025 11.491 11.3002 11.4685C11.2979 11.4455 11.2968 11.4223 11.2969 11.3991C11.2968 11.3761 11.2979 11.3531 11.3002 11.3302C11.3025 11.3073 11.3063 11.2843 11.3105 11.2618C11.3147 11.2393 11.3208 11.2168 11.3273 11.1952C11.334 11.1731 11.3418 11.1513 11.3508 11.1301C11.3597 11.109 11.3695 11.0884 11.3798 11.0682C11.3907 11.0478 11.4026 11.0279 11.4155 11.0087C11.4281 10.9899 11.4417 10.9712 11.4563 10.9534C11.4708 10.9355 11.4867 10.9182 11.5027 10.9018C11.5186 10.8854 11.5364 10.8704 11.5542 10.8554C11.572 10.8414 11.5903 10.8273 11.6095 10.8146C11.6288 10.802 11.6484 10.7903 11.6686 10.7795C11.6888 10.7687 11.7098 10.7589 11.7309 10.75C11.7521 10.7412 11.7737 10.7335 11.7956 10.7269C11.8397 10.7136 11.8849 10.7045 11.9306 10.6998C11.9766 10.6951 12.0229 10.6951 12.0689 10.6998C12.0919 10.7018 12.1148 10.7053 12.1373 10.7101C12.1599 10.7143 12.1821 10.7199 12.2039 10.7269C12.226 10.7335 12.2477 10.7412 12.2691 10.75C12.2902 10.7589 12.3108 10.7687 12.3309 10.7795C12.3512 10.7902 12.3709 10.8019 12.39 10.8146C12.4092 10.8273 12.428 10.8414 12.4458 10.8554C12.4636 10.8704 12.4809 10.8859 12.4969 10.9018C12.5128 10.9177 12.5288 10.9356 12.5438 10.9534C12.5578 10.9712 12.5719 10.9899 12.5845 11.0087C12.5972 11.0279 12.609 11.0478 12.6197 11.0682C12.6305 11.0884 12.6403 11.109 12.6492 11.1301C12.6581 11.1512 12.6656 11.1731 12.6727 11.1952C12.6797 11.2173 12.6848 11.2393 12.6895 11.2618C12.6942 11.2843 12.6975 11.3073 12.6998 11.3302C12.7022 11.3532 12.7031 11.3762 12.7031 11.3991C12.7031 11.4221 12.7017 11.4455 12.6998 11.4685C12.698 11.4915 12.6938 11.5139 12.6895 11.5364C12.6853 11.5589 12.6792 11.5814 12.6727 11.6035C12.6661 11.6256 12.6581 11.6471 12.6492 11.6682C12.6403 11.6893 12.6305 11.7104 12.6197 11.7305C12.6089 11.7507 12.5972 11.7704 12.5845 11.7896C12.5719 11.8088 12.5578 11.8271 12.5438 11.8449C12.5288 11.8627 12.5133 11.8801 12.4969 11.8965C12.4805 11.9129 12.4636 11.9284 12.4458 11.9429C12.4279 11.9574 12.4093 11.971 12.39 11.9836C12.3709 11.9965 12.3512 12.0084 12.3309 12.0193C12.3109 12.0301 12.2902 12.0398 12.2691 12.0484C12.2478 12.0573 12.226 12.0651 12.2039 12.0718C12.1823 12.0784 12.1598 12.084 12.1373 12.0887C12.1147 12.0933 12.0919 12.0967 12.0689 12.0989C12.046 12.1012 12.023 12.1023 12 12.1023Z" fill="#E6E9F2" style="fill:#E6E9F2;fill:color(display-p3 0.9020 0.9137 0.9490);fill-opacity:1;"/>
<path d="M12.6896 11.2618C12.6849 11.2393 12.6793 11.2168 12.6727 11.1952C12.6661 11.1737 12.6582 11.1512 12.6493 11.1301C12.6404 11.109 12.6305 11.0884 12.6197 11.0682C12.609 11.0478 12.5973 11.0279 12.5846 11.0087C12.5719 10.9899 12.5579 10.9712 12.5438 10.9534C12.5288 10.9355 12.5133 10.9182 12.4969 10.9018C12.4805 10.8854 12.4636 10.8704 12.4458 10.8554C12.428 10.8414 12.4093 10.8273 12.39 10.8146C12.371 10.8019 12.3513 10.7902 12.331 10.7795C12.3108 10.7687 12.2902 10.7589 12.2691 10.75C12.2478 10.7412 12.226 10.7335 12.204 10.7269C12.1822 10.7199 12.1599 10.7143 12.1374 10.7101C12.1148 10.7053 12.092 10.7018 12.069 10.6998C12.046 10.6975 12.023 10.6963 12 10.6963V12.1023C12.023 12.1024 12.046 12.1013 12.0689 12.099C12.0919 12.0968 12.1147 12.0933 12.1373 12.0887C12.1598 12.084 12.1823 12.0784 12.2039 12.0718C12.226 12.0651 12.2478 12.0573 12.2691 12.0484C12.2902 12.0399 12.3109 12.0302 12.3309 12.0193C12.3512 12.0085 12.3709 11.9966 12.39 11.9837C12.4092 11.971 12.428 11.9574 12.4458 11.9429C12.4636 11.9284 12.4809 11.9124 12.4969 11.8965C12.5128 11.8806 12.5288 11.8627 12.5438 11.845C12.5578 11.8271 12.5719 11.8089 12.5845 11.7896C12.5972 11.7704 12.6089 11.7507 12.6197 11.7306C12.6305 11.7104 12.6403 11.6893 12.6492 11.6682C12.6581 11.6471 12.6656 11.6251 12.6727 11.6036C12.6797 11.582 12.6848 11.559 12.6895 11.5365C12.6942 11.514 12.6975 11.4911 12.6998 11.4686C12.7022 11.4461 12.7031 11.4221 12.7031 11.3992C12.7031 11.3762 12.7017 11.3532 12.6998 11.3303C12.698 11.3073 12.6937 11.2843 12.6896 11.2618Z" fill="#CFD7E6" style="fill:#CFD7E6;fill:color(display-p3 0.8118 0.8431 0.9020);fill-opacity:1;"/>
<path d="M14.3444 12.1025C14.1579 12.1027 13.979 12.0288 13.847 11.8971C13.715 11.7653 13.6408 11.5866 13.6406 11.4001C13.6405 11.2136 13.7144 11.0347 13.8461 10.9027C13.9778 10.7707 14.1566 10.6965 14.3431 10.6963H14.3444C14.5309 10.6963 14.7097 10.7704 14.8416 10.9022C14.9735 11.0341 15.0475 11.2129 15.0475 11.3994C15.0475 11.5859 14.9735 11.7647 14.8416 11.8966C14.7097 12.0285 14.5309 12.1025 14.3444 12.1025Z" fill="#CFD7E6" style="fill:#CFD7E6;fill:color(display-p3 0.8118 0.8431 0.9020);fill-opacity:1;"/>
<path d="M12.0689 21.5425C13.1165 21.2949 13.765 20.2449 13.5174 19.1973C13.2697 18.1498 12.2198 17.5013 11.1722 17.7489C10.1246 17.9965 9.47613 19.0465 9.72376 20.0941C9.97139 21.1416 11.0214 21.7901 12.0689 21.5425Z" fill="#176F93" style="fill:#176F93;fill:color(display-p3 0.0902 0.4353 0.5765);fill-opacity:1;"/>
<path d="M11.6191 17.7041V21.6031C12.1362 21.6031 12.632 21.3977 12.9976 21.0321C13.3632 20.6665 13.5686 20.1706 13.5686 19.6536C13.5686 19.1365 13.3632 18.6407 12.9976 18.2751C12.632 17.9095 12.1362 17.7041 11.6191 17.7041Z" fill="#0D647F" style="fill:#0D647F;fill:color(display-p3 0.0510 0.3922 0.4980);fill-opacity:1;"/>
<path d="M19.033 16.1259C18.9405 16.0971 18.855 16.0494 18.7818 15.986C18.7086 15.9226 18.6493 15.8447 18.6077 15.7573C18.566 15.6699 18.5428 15.5748 18.5396 15.478C18.5364 15.3812 18.5532 15.2848 18.589 15.1948C18.0427 16.1466 17.2958 16.9679 16.4002 17.6019C15.5045 18.2359 14.4815 18.6673 13.4023 18.866C13.6007 19.3134 13.6228 19.8192 13.4644 20.2822C14.7029 20.0774 15.8849 19.6162 16.9349 18.9282C17.9848 18.2402 18.8795 17.3406 19.5617 16.2868C19.3814 16.2478 19.2045 16.1939 19.033 16.1259Z" fill="#1794C6" style="fill:#1794C6;fill:color(display-p3 0.0902 0.5804 0.7765);fill-opacity:1;"/>
</svg>
