<svg width="24" height="24" viewBox="0 0 24 24" fill="none" xmlns="http://www.w3.org/2000/svg">
<path d="M21.8398 11.9975C21.8398 11.7687 21.8317 11.5373 21.8155 11.3062L24.0001 9.43575L23.8934 9.0132C23.7472 8.43416 23.5578 7.86176 23.3301 7.3112C23.1021 6.76163 22.8313 6.22297 22.5253 5.71013L22.3019 5.33589L19.4393 5.55771C19.134 5.20549 18.8036 4.8745 18.4518 4.56867L18.674 1.70071L18.2998 1.47739C17.7869 1.17128 17.2482 0.900499 16.698 0.672216C16.1482 0.444824 15.5758 0.255385 14.9968 0.109194L14.5742 0.00250244L12.7071 2.18318C12.4705 2.16622 12.2352 2.15779 12.0001 2.15779L9.8916 4.26617L12.0001 6.37469C15.1005 6.37469 17.6229 8.89705 17.6229 11.9974C17.6229 15.0978 15.1005 17.6201 12.0001 17.6201L9.8916 19.7287L12.0001 21.8371C12.2302 21.8371 12.4603 21.829 12.6914 21.8128L14.5618 23.9974L14.9844 23.8908C15.5634 23.7446 16.1358 23.5551 16.6864 23.3274C17.236 23.0994 17.7747 22.8287 18.2874 22.5226L18.6616 22.2993L18.4398 19.4366C18.792 19.1314 19.123 18.8009 19.4289 18.4491L22.2968 18.6714L22.5202 18.2971C22.8263 17.7842 23.097 17.2456 23.3253 16.6953C23.5527 16.1455 23.7422 15.5731 23.8883 14.9941L23.995 14.5715L21.8144 12.7045C21.8313 12.4679 21.8398 12.2313 21.8398 11.9975Z" fill="#587AA1" style="fill:#587AA1;fill:color(display-p3 0.3451 0.4784 0.6314);fill-opacity:1;"/>
<path d="M2.16025 11.9976C2.16025 11.7689 2.1684 11.5375 2.18462 11.3063L0 9.43594L0.106691 9.01339C0.252882 8.43434 0.442321 7.86195 0.669995 7.31139C0.897996 6.76181 1.16878 6.22316 1.47479 5.71032L1.69816 5.33608L4.56083 5.55789C4.8661 5.20568 5.19652 4.87468 5.54832 4.56885L5.32608 1.70089L5.70032 1.47757C6.21321 1.17146 6.75186 0.900682 7.30209 0.672399C7.85195 0.445007 8.42434 0.255568 9.00334 0.109377L9.42589 0.00268555L11.293 2.18337C11.5296 2.1664 11.7649 2.15797 12 2.15797V6.37488C8.8996 6.37488 6.37725 8.89723 6.37725 11.9976C6.37725 15.098 8.8996 17.6203 12 17.6203V21.8373C11.7699 21.8373 11.5399 21.8292 11.3087 21.813L9.43826 23.9976L9.01571 23.8909C8.43667 23.7447 7.86427 23.5553 7.31372 23.3276C6.76414 23.0996 6.22544 22.8288 5.71269 22.5228L5.33845 22.2995L5.56027 19.4368C5.20805 19.1316 4.87706 18.8011 4.57123 18.4493L1.70326 18.6715L1.47995 18.2973C1.17384 17.7844 0.903057 17.2458 0.674774 16.6955C0.447382 16.1457 0.257943 15.5733 0.111752 14.9943L0.00506045 14.5717L2.18574 12.7047C2.16878 12.468 2.16025 12.2315 2.16025 11.9976Z" fill="#6C90B8" style="fill:#6C90B8;fill:color(display-p3 0.4235 0.5647 0.7216);fill-opacity:1;"/>
<path d="M12.0004 4.96899L10.5947 6.37468L12.0004 7.78036C14.3257 7.78036 16.2175 9.67212 16.2175 11.9974C16.2175 14.3227 14.3257 16.2144 12.0004 16.2144L10.5947 17.6201L12.0004 19.0258C15.8759 19.0258 19.0288 15.8729 19.0288 11.9974C19.0288 8.12189 15.8759 4.96899 12.0004 4.96899Z" fill="#81A6C7" style="fill:#81A6C7;fill:color(display-p3 0.5059 0.6510 0.7804);fill-opacity:1;"/>
<path d="M7.78304 11.9975C7.78304 9.67218 9.67481 7.78042 12.0001 7.78042V4.96906C8.12458 4.96906 4.97168 8.12195 4.97168 11.9975C4.97168 15.873 8.12458 19.0259 12.0001 19.0259V16.2145C9.67481 16.2145 7.78304 14.3227 7.78304 11.9975Z" fill="#97BEDB" style="fill:#97BEDB;fill:color(display-p3 0.5922 0.7451 0.8588);fill-opacity:1;"/>
</svg>
