<svg width="22" height="23" viewBox="0 0 22 23" fill="none" xmlns="http://www.w3.org/2000/svg">
<path d="M20.29 6.74999L13.45 1.77999C11.99 0.719985 10.01 0.719985 8.55 1.77999L1.71 6.74999C0.64 7.53999 0 8.78999 0 10.12V18.84C0 21.14 1.86 23 4.16 23H17.84C20.14 23 22 21.14 22 18.84V10.12C22 8.78999 21.36 7.53999 20.29 6.74999ZM15.6 17.8C14.25 18.82 12.62 19.32 11 19.32C9.38 19.32 7.75 18.82 6.4 17.8C5.96 17.47 5.87 16.84 6.2 16.4C6.53 15.96 7.16 15.87 7.6 16.2C9.6 17.7 12.4 17.7 14.4 16.2C14.84 15.87 15.47 15.96 15.8 16.4C16.13 16.84 16.04 17.47 15.6 17.8Z" fill="#9266FF" style="fill:#9266FF;fill:color(display-p3 0.5725 0.4000 1.0000);fill-opacity:1;"/>
</svg>
