<svg width="41" height="41" viewBox="0 0 41 41" fill="none" xmlns="http://www.w3.org/2000/svg">
<path d="M40.9199 20.5C40.9199 24.5465 39.7188 28.4815 37.4466 31.8802C37.1378 32.3422 36.6304 32.5918 36.1137 32.5918C35.8078 32.5918 35.4984 32.5045 35.225 32.3215C34.4896 31.8301 34.2922 30.8354 34.7836 30.1C36.7027 27.23 37.7168 23.9105 37.7168 20.5C37.7168 19.0345 37.5335 17.579 37.1719 16.1745C36.9514 15.3181 37.4672 14.4447 38.3237 14.2242C39.1807 14.004 40.0535 14.5195 40.274 15.3759C40.7025 17.0413 40.9199 18.7652 40.9199 20.5ZM29.3674 35.306C26.6773 36.9354 23.5833 37.7969 20.4199 37.7969C10.8825 37.7969 3.12305 30.0374 3.12305 20.5C3.12305 10.9626 10.8825 3.20313 20.4199 3.20313C23.9512 3.20313 27.3467 4.25978 30.2398 6.25892C30.9674 6.7616 31.965 6.57923 32.4679 5.85165C32.9706 5.12406 32.7886 4.12653 32.0607 3.62354C28.6298 1.2531 24.6046 0 20.4199 0C14.9443 0 9.79612 2.13239 5.92422 6.0043C2.05232 9.8762 -0.0800781 15.0244 -0.0800781 20.5C-0.0800781 25.9757 2.05232 31.1238 5.92422 34.9957C9.79612 38.8676 14.9443 41 20.4199 41C24.1686 41 27.8365 39.9784 31.0272 38.0456C31.7838 37.5873 32.0256 36.6026 31.5674 35.8459C31.1088 35.0892 30.1241 34.8478 29.3674 35.306ZM20.5745 25.1439C20.3208 25.1539 20.084 25.0638 19.9 24.8887L11.5122 16.9356C10.8703 16.3269 9.8565 16.3538 9.24809 16.9956C8.63937 17.6375 8.66627 18.6513 9.30815 19.2597L17.6945 27.2116C18.469 27.9479 19.4709 28.3477 20.5325 28.3477C20.5895 28.3477 20.6464 28.3464 20.7033 28.3442C21.8279 28.2989 22.8608 27.8121 23.6115 26.9735C23.6306 26.9526 23.6487 26.931 23.6665 26.9088L40.5665 5.88825C41.1208 5.19882 41.0113 4.19065 40.3219 3.63667C39.6327 3.08238 38.6243 3.19187 38.07 3.88129L21.2032 24.8608C21.0374 25.0338 20.8153 25.1342 20.5745 25.1439Z" fill="white" style="fill:white;fill-opacity:1;"/>
</svg>
