<svg width="46" height="46" viewBox="0 0 46 46" fill="none" xmlns="http://www.w3.org/2000/svg">
<path d="M41.6875 21.142V16.5598C41.6863 15.4165 41.2315 14.3203 40.423 13.5118C39.6146 12.7033 38.5184 12.2486 37.375 12.2473H35.9375V6.43985C35.9388 5.73491 35.7672 5.04042 35.4376 4.41727C35.108 3.79412 34.6306 3.26133 34.0472 2.86564C33.4638 2.46994 32.7923 2.22341 32.0914 2.14768C31.3906 2.07194 30.6818 2.16931 30.0274 2.43123L23.3574 5.09665C21.5364 3.324 19.2328 2.12809 16.7353 1.6587C14.2377 1.18932 11.6572 1.46733 9.31688 2.45792C6.9766 3.44851 4.98064 5.10763 3.57903 7.22746C2.17742 9.34728 1.43247 11.8336 1.43749 14.3748C1.45871 14.8274 1.50429 15.2785 1.57406 15.7261C1.49232 15.9969 1.44641 16.2772 1.43749 16.5598V39.5598C1.43879 40.7032 1.89356 41.7993 2.70203 42.6078C3.5105 43.4163 4.60665 43.8711 5.74999 43.8723H37.375C38.5183 43.8711 39.6145 43.4163 40.423 42.6078C41.2314 41.7993 41.6862 40.7032 41.6875 39.5598V34.9886C42.5259 34.6932 43.2524 34.1456 43.7671 33.4208C44.2819 32.6961 44.5597 31.8298 44.5625 30.9409V25.1909C44.5599 24.3018 44.2822 23.4352 43.7674 22.7103C43.2527 21.9853 42.5261 21.4375 41.6875 21.142ZM31.0874 5.10125C31.306 5.01271 31.543 4.97938 31.7775 5.00419C32.0121 5.02901 32.2369 5.1112 32.4321 5.24351C32.6273 5.37583 32.787 5.55419 32.8969 5.76284C33.0069 5.97149 33.0637 6.20401 33.0625 6.43985V12.2473H27.0974C26.8159 10.5339 26.1891 8.89558 25.2551 7.43172L31.0874 5.10125ZM14.375 4.31235C16.3652 4.31235 18.3106 4.9025 19.9654 6.00818C21.6202 7.11387 22.9099 8.68541 23.6715 10.5241C24.4331 12.3628 24.6324 14.386 24.2441 16.3379C23.8559 18.2899 22.8975 20.0828 21.4903 21.4901C20.083 22.8974 18.29 23.8557 16.3381 24.244C14.3862 24.6323 12.3629 24.433 10.5242 23.6714C8.68556 22.9098 7.11401 21.62 6.00833 19.9653C4.90265 18.3105 4.31249 16.365 4.31249 14.3748C4.31569 11.7071 5.37687 9.14951 7.26326 7.26311C9.14965 5.37672 11.7072 4.31554 14.375 4.31235ZM37.375 40.9973H5.74999C5.36889 40.9969 5.00352 40.8453 4.73403 40.5758C4.46455 40.3063 4.31295 39.941 4.31249 39.5598L4.32917 22.4269C5.94794 24.4778 8.15376 25.9863 10.6522 26.7509C13.1507 27.5155 15.8229 27.4998 18.3122 26.7061C20.8016 25.9123 22.9896 24.3782 24.5843 22.3084C26.179 20.2387 27.1044 17.7318 27.2372 15.1223H37.375C37.7561 15.1228 38.1215 15.2744 38.391 15.5439C38.6604 15.8134 38.812 16.1787 38.8125 16.5598V20.8772H34.5C33.3566 20.8785 32.2605 21.3333 31.452 22.1418C30.6436 22.9502 30.1888 24.0464 30.1875 25.1897V30.9397C30.1887 32.0831 30.6435 33.1793 31.4519 33.9878C32.2604 34.7963 33.3566 35.251 34.5 35.2522H38.8125V39.5598C38.812 39.941 38.6604 40.3063 38.391 40.5758C38.1215 40.8453 37.7561 40.9969 37.375 40.9973ZM41.6875 30.9403C41.6868 31.3187 41.5369 31.6815 41.2703 31.9501C41.0038 32.2186 40.6421 32.3713 40.2638 32.3749L40.25 32.3723L40.2212 32.3778H34.5C34.1189 32.3774 33.7535 32.2258 33.484 31.9563C33.2145 31.6868 33.063 31.3214 33.0625 30.9403V25.1903C33.063 24.8092 33.2145 24.4438 33.484 24.1743C33.7535 23.9049 34.1189 23.7533 34.5 23.7528H40.25C40.6311 23.7533 40.9965 23.9049 41.266 24.1743C41.5354 24.4438 41.687 24.8092 41.6875 25.1903V30.9403Z" fill="#3F79CF" style="fill:#3F79CF;fill:color(display-p3 0.2471 0.4733 0.8125);fill-opacity:1;"/>
<path d="M10.0625 15.8125H12.9375V18.6875C12.9375 19.0687 13.089 19.4344 13.3585 19.704C13.6281 19.9735 13.9938 20.125 14.375 20.125C14.7562 20.125 15.1219 19.9735 15.3915 19.704C15.661 19.4344 15.8125 19.0687 15.8125 18.6875V15.8125H18.6875C19.0687 15.8125 19.4344 15.661 19.704 15.3915C19.9735 15.1219 20.125 14.7562 20.125 14.375C20.125 13.9938 19.9735 13.6281 19.704 13.3585C19.4344 13.089 19.0687 12.9375 18.6875 12.9375H15.8125V10.0625C15.8125 9.68125 15.661 9.31562 15.3915 9.04603C15.1219 8.77645 14.7562 8.625 14.375 8.625C13.9938 8.625 13.6281 8.77645 13.3585 9.04603C13.089 9.31562 12.9375 9.68125 12.9375 10.0625V12.9375H10.0625C9.68125 12.9375 9.31562 13.089 9.04603 13.3585C8.77645 13.6281 8.625 13.9938 8.625 14.375C8.625 14.7562 8.77645 15.1219 9.04603 15.3915C9.31562 15.661 9.68125 15.8125 10.0625 15.8125Z" fill="#3F79CF" style="fill:#3F79CF;fill:color(display-p3 0.2471 0.4733 0.8125);fill-opacity:1;"/>
</svg>
