<svg width="902" height="1000" viewBox="0 0 902 1000" fill="none" xmlns="http://www.w3.org/2000/svg">
<g clip-path="url(#clip0_168_7394)">
<path d="M154.91 450.598C159.414 473.329 163.443 510.409 167.959 533.127C169.076 538.775 170.205 544.64 168.87 550.236C167.074 557.835 161.159 563.636 155.654 569.181C121.498 603.643 79.8484 645.228 61.3203 690.086C48.0401 722.251 53.6088 758.279 64.8232 791.226" stroke="#E7E7E7" style="stroke:#E7E7E7;stroke:color(display-p3 0.9042 0.9042 0.9042);stroke-opacity:1;" stroke-width="3" stroke-miterlimit="10"/>
<path d="M55.9953 757.496C46.1923 789.955 42.5868 803.419 34.4776 836.328C26.394 869.16 19.1316 902.185 12.6647 935.363C8.54592 956.464 5.10719 977.513 1.89941 998.755" stroke="#E7E7E7" style="stroke:#E7E7E7;stroke:color(display-p3 0.9042 0.9042 0.9042);stroke-opacity:1;" stroke-width="3" stroke-miterlimit="10"/>
<path d="M172.796 740.258C163.199 769.034 162.724 804.947 175.991 832.683C188.592 858.995 213.304 879.146 241.52 886.385C246.742 927.752 273.7 963.01 300.53 995.2C301.518 996.381 302.519 997.574 303.52 998.742" stroke="#E7E7E7" style="stroke:#E7E7E7;stroke:color(display-p3 0.9042 0.9042 0.9042);stroke-opacity:1;" stroke-width="3" stroke-miterlimit="10"/>
<path d="M266.001 461.302C261.061 507.906 260.253 568.693 233.59 608.789C219.72 629.646 203.899 649.04 189.733 669.409" stroke="#E7E7E7" style="stroke:#E7E7E7;stroke:color(display-p3 0.9042 0.9042 0.9042);stroke-opacity:1;" stroke-width="3" stroke-miterlimit="10"/>
<path d="M190.786 854.99C181.175 873.614 166.048 892.699 149.957 906.125C145.633 909.744 141.065 913.171 137.601 917.625C134.085 922.169 131.878 927.559 129.71 932.886C120.792 954.834 111.875 976.794 102.957 998.742" stroke="#E7E7E7" style="stroke:#E7E7E7;stroke:color(display-p3 0.9042 0.9042 0.9042);stroke-opacity:1;" stroke-width="3" stroke-miterlimit="10"/>
<path d="M420.347 394.548C414.919 429.985 450.41 451.561 447.369 487.281C445.175 513.053 426.929 522.846 411.712 548.978C396.109 575.765 390.823 622.343 386.742 648.527C382.79 673.799 373.039 682.603 375.977 708.017C379.005 734.072 389.565 760.23 395.108 785.861C398.354 800.878 401.755 828.845 407.541 843.079C425.441 887.116 452.514 954.718 470.401 998.768" stroke="#E7E7E7" style="stroke:#E7E7E7;stroke:color(display-p3 0.9042 0.9042 0.9042);stroke-opacity:1;" stroke-width="3" stroke-miterlimit="10"/>
<path d="M200.204 239.771C205.824 253.992 205.722 270.382 199.909 284.526C188.9 311.338 161.968 319.45 138.346 331.708C99.2878 352 93.6678 396.82 95.0792 436.839C96.7986 485.689 98.1971 516.146 94.8867 565.356" stroke="#E7E7E7" style="stroke:#E7E7E7;stroke:color(display-p3 0.9042 0.9042 0.9042);stroke-opacity:1;" stroke-width="3" stroke-miterlimit="10"/>
<path d="M660.442 0.0513916C660.699 9.33109 661.212 17.0449 664.151 25.8497C669.848 42.8689 684.129 55.8451 699.898 64.406C715.68 72.967 733.143 77.7929 750.093 83.6714C769.058 90.2429 788.279 98.6755 803.406 112.165C821.28 128.106 826.169 147.063 833.983 168.998C843.683 196.247 853.178 223.586 864.47 250.231C880.701 288.544 914.986 340.14 892.813 382.431C879.277 408.243 861.044 432.501 846.391 457.901C834.227 478.989 822.063 500.064 809.912 521.152" stroke="#E7E7E7" style="stroke:#E7E7E7;stroke:color(display-p3 0.9042 0.9042 0.9042);stroke-opacity:1;" stroke-width="3" stroke-miterlimit="10"/>
<path d="M729.73 114.937C700.925 116.978 671.477 116.888 646.675 104.772" stroke="#E7E7E7" style="stroke:#E7E7E7;stroke:color(display-p3 0.9042 0.9042 0.9042);stroke-opacity:1;" stroke-width="3" stroke-miterlimit="10"/>
<path d="M768.045 243.198C765.17 300.685 711.28 372.369 742.523 427.97C749.491 440.369 760.615 449.777 770.457 460.058C800.135 491.08 819.074 532.203 823.359 574.918" stroke="#E7E7E7" style="stroke:#E7E7E7;stroke:color(display-p3 0.9042 0.9042 0.9042);stroke-opacity:1;" stroke-width="3" stroke-miterlimit="10"/>
<path d="M748.027 204.307C776.577 266.378 800.84 288.698 835.343 347.674" stroke="#E7E7E7" style="stroke:#E7E7E7;stroke:color(display-p3 0.9042 0.9042 0.9042);stroke-opacity:1;" stroke-width="3" stroke-miterlimit="10"/>
<path d="M835.215 347.559C811.939 383.356 804.87 436.98 782.864 474.394" stroke="#E7E7E7" style="stroke:#E7E7E7;stroke:color(display-p3 0.9042 0.9042 0.9042);stroke-opacity:1;" stroke-width="3" stroke-miterlimit="10"/>
<path d="M722.006 265.248C709.881 286.503 686.362 300.788 661.918 301.738C659.352 301.841 656.67 301.776 654.412 300.544" stroke="#E7E7E7" style="stroke:#E7E7E7;stroke:color(display-p3 0.9042 0.9042 0.9042);stroke-opacity:1;" stroke-width="3" stroke-miterlimit="10"/>
<path d="M527.641 127.22C527.102 147.628 509.369 162.735 499.387 180.537C478.459 217.874 496.628 249.551 519.865 278.776C537.071 300.429 534.993 345.415 535.198 371.958C535.621 426.16 520.096 479.053 513.193 532.832" stroke="#E7E7E7" style="stroke:#E7E7E7;stroke:color(display-p3 0.9042 0.9042 0.9042);stroke-opacity:1;" stroke-width="3" stroke-miterlimit="10"/>
<path d="M557.755 17.6482C541.319 8.38129 515.657 -0.295164 498.54 11.4745C471.158 30.3163 466.783 69.386 462.177 99.1632C455.979 139.196 449.782 179.228 443.584 219.26C440.89 236.639 438.195 254.261 440.017 271.755C443.084 301.135 458.545 327.562 473.648 352.937C490.841 381.828 511.127 415.79 528.308 444.681" stroke="#E7E7E7" style="stroke:#E7E7E7;stroke:color(display-p3 0.9042 0.9042 0.9042);stroke-opacity:1;" stroke-width="3" stroke-miterlimit="10"/>
</g>
<defs>
<clipPath id="clip0_168_7394">
<rect width="902" height="1000" fill="white" style="fill:white;fill-opacity:1;"/>
</clipPath>
</defs>
</svg>
